<?xml version="1.0" encoding="utf-8"?>
<!-- Generator: Adobe Illustrator 22.0.0, SVG Export Plug-In . SVG Version: 6.00 Build 0)  -->
<svg version="1.1" id="Layer_1" xmlns="http://www.w3.org/2000/svg" xmlns:xlink="http://www.w3.org/1999/xlink" x="0px" y="0px"
	 viewBox="0 0 288.4 23.3" style="enable-background:new 0 0 288.4 23.3;" xml:space="preserve">
<style type="text/css">
	.st0{fill:#089CA7;}
	.st1{fill:#77C699;}
	.st2{fill:#5EC7E8;}
</style>
<path class="st0" d="M269.6,0.7c3.9,0.1,7.8-0.2,11.6,0.2c2.8,0.3,5.6,2.4,5.7,5.4c0.2,2.2-1.3,3.9-3,5c1.1,0.5,2.2,0.9,2.9,1.9
	c1.9,2.2,1.4,5.9-0.8,7.7c-1.7,1.4-4.1,1.8-6.2,1.8c-3.4,0-6.8,0-10.2,0V0.7L269.6,0.7z M276.5,5.6c0,1.4,0,2.8,0,4.1
	c1-0.1,2.1,0,3.1-0.4c1.3-0.6,1.5-2.8,0.1-3.4C278.7,5.6,277.5,5.7,276.5,5.6L276.5,5.6z M276.5,13.7c0,1.4,0,2.8,0,4.1
	c1.3,0,2.7,0.1,3.9-0.3c1.5-0.5,1.5-2.9,0.1-3.5C279.2,13.6,277.8,13.8,276.5,13.7L276.5,13.7z M218.2,0.7c3.9-0.8,8.4,0,11.4,2.9
	c4,3.8,4.4,10.7,1.1,15.1c-4.3,5.8-14,6-18.7,0.7c-3.2-3.7-3.6-9.4-1.1-13.6C212.4,3.1,215.2,1.3,218.2,0.7L218.2,0.7z M219.1,6.7
	c-4,2.1-3.5,9.4,1.1,10.5c3.5,0.8,6-3,5.4-6.1C225.6,7.9,222.1,5,219.1,6.7L219.1,6.7z M191,0.7c2.4,0,4.7,0,7.1,0
	c0,5.5,0,11,0,16.5c2.4,0,4.8,0,7.2,0c0,1.9,0,3.7,0,5.6c-4.8,0-9.5,0-14.2,0C191,15.4,191,8.1,191,0.7L191,0.7z M238.3,0.7
	c2.4,0,4.7,0,7.1,0c1.7,2.9,3.3,5.9,5,8.8c1.5-2.9,3.1-5.9,4.6-8.8c2.6,0,5.1,0,7.7,0c0,7.4,0,14.7,0,22.1c-2.4,0-4.9,0-7.3,0
	c0-3.6,0-7.1,0-10.7c-1.1,2.1-2.2,4.2-3.3,6.3c-1.1,0-2.3,0-3.4,0c-1.1-2.1-2.3-4.2-3.4-6.3c0,3.6,0,7.2,0,10.7c-2.3,0-4.6,0-6.9,0
	C238.3,15.4,238.3,8.1,238.3,0.7L238.3,0.7z"/>
<path class="st0" d="M83.5,1.7c4-2.2,9.2-1.6,13,0.8c-1,1.6-2,3.2-2.9,4.8c-1.7-1.1-3.7-2.2-5.7-1.4c-0.8,0.2-1,1.5-0.1,1.8
	c2.5,1.4,5.9,1.4,7.8,3.8c2.5,3.4,1.1,9-2.9,10.6C88.2,24,83,23,79.3,20.1c1-1.6,2-3.1,2.9-4.7c2,1.4,4.4,2.9,6.8,2.1
	c1.1-0.4,0.8-1.8-0.1-2.2c-2.4-1.2-5.3-1.4-7.2-3.4C79.1,9,80,3.6,83.5,1.7L83.5,1.7z M104.9,5c3-4.3,9.1-5.8,13.9-3.7
	c1.2,0.6,2.3,1.4,3.4,2.2c-1.2,1.6-2.4,3.3-3.6,4.9c-1.6-1.4-3.8-2.6-5.9-1.7c-3.7,1.9-3.6,8.5,0.3,10.1c2.2,0.9,4.5-0.2,6.1-1.6
	c1.2,1.6,2.4,3.2,3.5,4.8c-2.2,1.8-5,3.2-8,3c-4,0.3-8.1-1.6-10.2-5.1C102.1,14,102.2,8.7,104.9,5L104.9,5z M0.6,0.7
	c3.9,0.1,7.8-0.2,11.6,0.2c2.8,0.3,5.6,2.4,5.7,5.4c0.2,2.2-1.3,3.9-3,5c1.1,0.5,2.2,0.9,2.9,1.9c1.9,2.2,1.4,5.9-0.8,7.7
	c-1.7,1.4-4.1,1.8-6.2,1.8c-3.4,0-6.8,0-10.2,0V0.7L0.6,0.7z M7.5,5.6c0,1.4,0,2.8,0,4.1c1-0.1,2.1,0,3.1-0.4
	C11.9,8.8,12,6.6,10.7,6C9.7,5.6,8.6,5.7,7.5,5.6L7.5,5.6z M7.5,13.7c0,1.4,0,2.8,0,4.1c1.3,0,2.7,0.1,3.9-0.3
	c1.5-0.5,1.5-2.9,0.1-3.5C10.2,13.6,8.9,13.8,7.5,13.7L7.5,13.7z M23.6,22.8c2.6-7.4,5.1-14.7,7.6-22.1c2.6,0,5.3,0,7.9,0
	c2.6,7.4,5.1,14.7,7.7,22.1c-2.5,0-4.9,0-7.4,0c-0.4-1.3-0.8-2.7-1.2-4c-2.1,0-4.3,0-6.4,0c-0.4,1.3-0.8,2.7-1.1,4
	C28.3,22.8,25.9,22.8,23.6,22.8L23.6,22.8z M33.3,13.4c1.1,0,2.2,0,3.3,0c-0.5-1.8-1-3.7-1.6-5.5C34.4,9.7,33.9,11.6,33.3,13.4
	L33.3,13.4z M51.8,0.7c2.5,0,4.9,0,7.4,0c0,4.4,0,8.8,0,13.1c-0.1,1.7,1.3,3.5,3.2,3.4c1.9,0.2,3.4-1.7,3.4-3.5
	c0.1-4.4,0-8.7,0-13.1c2.4,0,4.9,0,7.3,0c0,4,0,8.1,0,12.1c0,2.9-0.9,6.1-3.3,8c-2.9,2.5-7.1,2.5-10.7,2c-3.9-0.7-6.9-4.1-7.2-8
	C51.6,10.1,51.9,5.4,51.8,0.7L51.8,0.7z M129.5,0.7c2.4,0,4.9,0,7.3,0c0,2.7,0,5.4,0,8.2c1.8,0,3.7,0,5.5,0c0-2.7,0-5.4,0-8.2
	c2.5,0,4.9,0,7.4,0c0,7.4,0,14.7,0,22.1c-2.5,0-4.9,0-7.4,0c0-2.6,0-5.1,0-7.7c-1.8,0-3.7,0-5.5,0c0,2.6,0,5.1,0,7.7
	c-2.4,0-4.9,0-7.3,0C129.5,15.4,129.5,8.1,129.5,0.7L129.5,0.7z"/>
<path class="st0" d="M166.8,8.2c2.4,0,4.7,0,7.1,0c0,2.4,0,4.8,0,7.2c-2.4,0-4.7,0-7.1,0C166.8,12.9,166.8,10.5,166.8,8.2L166.8,8.2
	L166.8,8.2z"/>
<path class="st1" d="M166.8,15.3c2.4,0,4.7,0,7.1,0c0,2.5,0,5,0,7.5c-2.4,0-4.7,0-7.1,0C166.8,20.3,166.8,17.8,166.8,15.3
	L166.8,15.3L166.8,15.3z M166.8,0.7c2.4,0,4.7,0,7.1,0c0,2.5,0,5,0,7.5c-2.4,0-4.7,0-7.1,0C166.8,5.7,166.8,3.2,166.8,0.7L166.8,0.7
	z"/>
<path class="st2" d="M173.9,8.2c2.5,0,4.9,0,7.4,0c0,2.4,0,4.8,0,7.2c-2.5,0-4.9,0-7.4,0C173.9,12.9,173.9,10.5,173.9,8.2L173.9,8.2
	L173.9,8.2z M159.4,8.2c2.5,0,5,0,7.5,0c0,2.4,0,4.8,0,7.1c-2.5,0-5,0-7.5,0C159.4,12.9,159.4,10.5,159.4,8.2L159.4,8.2z"/>
</svg>
