<?xml version="1.0" encoding="utf-8"?>
<!-- Generator: Adobe Illustrator 22.0.0, SVG Export Plug-In . SVG Version: 6.00 Build 0)  -->
<svg version="1.1" id="Layer_1" xmlns="http://www.w3.org/2000/svg" xmlns:xlink="http://www.w3.org/1999/xlink" x="0px" y="0px"
	 viewBox="0 0 51.9 23.3" style="enable-background:new 0 0 51.9 23.3;" xml:space="preserve">
<style type="text/css">
	.st0{fill:#089CA7;}
	.st1{fill:#5EC7E8;}
	.st2{fill:#77C699;}
</style>
<g>
	<path class="st0" d="M0.4,18c2.4-0.1,4.7,0,7.1,0c0,1.7,0,3.4,0,5.1c-2.4,0-4.7,0-7.1,0V18L0.4,18z M34.6,17.2c2.4,0,4.9,0,7.3,0
		c0,1.9,0,3.9,0,5.8c-2.4,0-4.9,0-7.3,0C34.6,21.1,34.6,19.1,34.6,17.2L34.6,17.2z M25,9.6c1.4,0,2.8,0,4.2,0c-0.1,1.4,0,2.8,0,4.2
		c-1.4,0-2.8,0-4.2,0C25,12.3,25,11,25,9.6L25,9.6z M0.4,9.6c2.4,0.1,4.7,0,7.1,0c0,1.4,0,2.7,0,4.1c-2.4,0-4.7,0-7.1,0V9.6L0.4,9.6
		z M0.4,0.3c2.4,0,4.7,0,7.1,0c0,1.7,0,3.4,0,5.1c-2.4,0-4.7,0-7.1,0V0.3L0.4,0.3z"/>
	<path class="st1" d="M42,17.2c3.2,0,6.4,0,9.5,0V23c-3.2,0-6.4,0-9.5,0C42,21.1,41.9,19.1,42,17.2L42,17.2L42,17.2z M10.3,23h0.6
		c0.6,0,1.2,0,1.8,0c2-0.1,4.2-0.6,5.7-1.9c2.2-1.9,2.6-5.6,0.8-7.9c-0.5-0.6-1.2-1.2-1.9-1.5c-0.4-0.2-0.9-0.3-1.3-0.5
		c1-0.4,2-1.2,2.5-2.2c1.1-1.8,0.9-4.2-0.3-5.9c-0.9-1.3-2.3-2-3.7-2.4c-1.2-0.3-2.3-0.4-3.5-0.4h-0.4c-1,0-2,0-3.1,0
		c0,1.7,0,3.4,0,5.1c1,0,2,0,2.9,0c0.7,0.1,1.5,0.2,1.9,0.8c0.7,1,0.3,2.5-0.8,3c-1.3,0.5-2.7,0.3-4,0.4c0,1.4,0,2.7,0,4.1
		c1.1,0,2.3,0,3.4,0c0.8,0,1.6,0.2,2.2,0.7c0.6,0.6,0.6,1.7,0.3,2.4c-0.4,0.8-1.3,1-2.1,1.1c-1.2,0-2.5,0-3.7,0c0,1.7,0,3.4,0,5.1
		C8.5,23,9.4,23,10.3,23L10.3,23z M29.1,9.6c1.1,0.1,2.2-0.1,3.3,0.1c0,1.3,0,2.7,0,4c-1.1,0.1-2.2,0-3.3,0.1
		C29.1,12.3,29.1,10.9,29.1,9.6L29.1,9.6z M21.7,9.6c1.1,0,2.2,0,3.3,0c0,1.4,0,2.8,0,4.2c-1.1-0.1-2.2,0-3.3,0
		C21.7,12.3,21.7,11,21.7,9.6L21.7,9.6z"/>
	<path class="st2" d="M25,13.7c1.4,0,2.8,0,4.2,0c-0.1,1.1,0,2.2,0,3.3c-1.4,0-2.7,0-4.1,0C25,15.9,25,14.8,25,13.7L25,13.7L25,13.7
		z M0.4,13.7c2.4,0,4.7,0,7.1,0c0,1.4,0,2.8,0,4.2c-2.4,0-4.7,0-7.1,0V13.7L0.4,13.7z M25,6.4c1.4,0,2.7,0,4.1,0c0,1,0,2.1,0,3.1
		c-1.4,0-2.8,0-4.2,0C25,8.5,25,7.5,25,6.4L25,6.4z M0.4,5.3c2.4,0,4.7,0,7.1,0c0,1.4,0,2.8,0,4.2c-2.4,0-4.7,0-7.1,0V5.3L0.4,5.3z
		 M34.6,0.3c2.4,0,4.9,0,7.3,0c0,5.6,0,11.3,0,16.9c-2.4,0-4.9,0-7.3,0C34.6,11.6,34.6,5.9,34.6,0.3L34.6,0.3z"/>
</g>
</svg>
