<?xml version="1.0" encoding="utf-8"?>
<!-- Generator: Adobe Illustrator 22.0.0, SVG Export Plug-In . SVG Version: 6.00 Build 0)  -->
<svg version="1.1" id="Layer_1" xmlns="http://www.w3.org/2000/svg" xmlns:xlink="http://www.w3.org/1999/xlink" x="0px" y="0px"
	 viewBox="0 0 43.8 45.9" style="enable-background:new 0 0 43.8 45.9;" xml:space="preserve">
<style type="text/css">
	.st0{opacity:0.3;}
	.st1{opacity:0;fill:url(#SVGID_1_);}
	.st2{opacity:2.439024e-02;fill:url(#SVGID_2_);}
	.st3{opacity:4.878049e-02;fill:url(#SVGID_3_);}
	.st4{opacity:7.317073e-02;fill:url(#SVGID_4_);}
	.st5{opacity:9.756097e-02;fill:url(#SVGID_5_);}
	.st6{opacity:0.122;fill:url(#SVGID_6_);}
	.st7{opacity:0.1463;fill:url(#SVGID_7_);}
	.st8{opacity:0.1707;fill:url(#SVGID_8_);}
	.st9{opacity:0.1951;fill:url(#SVGID_9_);}
	.st10{opacity:0.2195;fill:url(#SVGID_10_);}
	.st11{opacity:0.2439;fill:url(#SVGID_11_);}
	.st12{opacity:0.2683;fill:url(#SVGID_12_);}
	.st13{opacity:0.2927;fill:url(#SVGID_13_);}
	.st14{opacity:0.3171;fill:url(#SVGID_14_);}
	.st15{opacity:0.3415;fill:url(#SVGID_15_);}
	.st16{opacity:0.3659;fill:url(#SVGID_16_);}
	.st17{opacity:0.3902;fill:url(#SVGID_17_);}
	.st18{opacity:0.4146;fill:url(#SVGID_18_);}
	.st19{opacity:0.439;fill:url(#SVGID_19_);}
	.st20{opacity:0.4634;fill:url(#SVGID_20_);}
	.st21{opacity:0.4878;fill:url(#SVGID_21_);}
	.st22{opacity:0.5122;fill:url(#SVGID_22_);}
	.st23{opacity:0.5366;fill:url(#SVGID_23_);}
	.st24{opacity:0.561;fill:url(#SVGID_24_);}
	.st25{opacity:0.5854;fill:url(#SVGID_25_);}
	.st26{opacity:0.6098;fill:url(#SVGID_26_);}
	.st27{opacity:0.6341;fill:url(#SVGID_27_);}
	.st28{opacity:0.6585;fill:url(#SVGID_28_);}
	.st29{opacity:0.6829;fill:url(#SVGID_29_);}
	.st30{opacity:0.7073;fill:url(#SVGID_30_);}
	.st31{opacity:0.7317;fill:url(#SVGID_31_);}
	.st32{opacity:0.7561;fill:url(#SVGID_32_);}
	.st33{opacity:0.7805;fill:url(#SVGID_33_);}
	.st34{opacity:0.8049;fill:url(#SVGID_34_);}
	.st35{opacity:0.8293;fill:url(#SVGID_35_);}
	.st36{opacity:0.8537;fill:url(#SVGID_36_);}
	.st37{opacity:0.878;fill:url(#SVGID_37_);}
	.st38{opacity:0.9024;fill:url(#SVGID_38_);}
	.st39{opacity:0.9268;fill:url(#SVGID_39_);}
	.st40{opacity:0.9512;fill:url(#SVGID_40_);}
	.st41{opacity:0.9756;fill:url(#SVGID_41_);}
	.st42{fill:url(#SVGID_42_);}
	.st43{fill:url(#SVGID_43_);}
	.st44{opacity:0.7;}
	.st45{opacity:0;fill:#010101;}
	.st46{opacity:1.408451e-02;fill:#010101;}
	.st47{opacity:2.816901e-02;fill:#010101;}
	.st48{opacity:4.225352e-02;fill:#010101;}
	.st49{opacity:5.633803e-02;fill:#010101;}
	.st50{opacity:7.042254e-02;fill:#010101;}
	.st51{opacity:8.450704e-02;fill:#010101;}
	.st52{opacity:9.859155e-02;fill:#010101;}
	.st53{opacity:0.1127;fill:#010101;}
	.st54{opacity:0.1268;fill:#010101;}
	.st55{opacity:0.1408;fill:#010101;}
	.st56{opacity:0.1549;fill:#010101;}
	.st57{opacity:0.169;fill:#010101;}
	.st58{opacity:0.1831;fill:#010101;}
	.st59{opacity:0.1972;fill:#010101;}
	.st60{opacity:0.2113;fill:#010101;}
	.st61{opacity:0.2254;fill:#010101;}
	.st62{opacity:0.2394;fill:#010101;}
	.st63{opacity:0.2535;fill:#010101;}
	.st64{opacity:0.2676;fill:#010101;}
	.st65{opacity:0.2817;fill:#010101;}
	.st66{opacity:0.2958;fill:#010101;}
	.st67{opacity:0.3099;fill:#010101;}
	.st68{opacity:0.3239;fill:#010101;}
	.st69{opacity:0.338;fill:#010101;}
	.st70{opacity:0.3521;fill:#010101;}
	.st71{opacity:0.3662;fill:#010101;}
	.st72{opacity:0.3803;fill:#010101;}
	.st73{opacity:0.3944;fill:#010101;}
	.st74{opacity:0.4085;fill:#010101;}
	.st75{opacity:0.4225;fill:#010101;}
	.st76{opacity:0.4366;fill:#010101;}
	.st77{opacity:0.4507;fill:#010101;}
	.st78{opacity:0.4648;fill:#010101;}
	.st79{opacity:0.4789;fill:#010101;}
	.st80{opacity:0.493;fill:#010101;}
	.st81{opacity:0.507;fill:#010101;}
	.st82{opacity:0.5211;fill:#010101;}
	.st83{opacity:0.5352;fill:#010101;}
	.st84{opacity:0.5493;fill:#010101;}
	.st85{opacity:0.5634;fill:#010101;}
	.st86{opacity:0.5775;fill:#010101;}
	.st87{opacity:0.5915;fill:#010101;}
	.st88{opacity:0.6056;fill:#010101;}
	.st89{opacity:0.6197;fill:#010101;}
	.st90{opacity:0.6338;fill:#010101;}
	.st91{opacity:0.6479;fill:#010101;}
	.st92{opacity:0.662;fill:#010101;}
	.st93{opacity:0.6761;fill:#010101;}
	.st94{opacity:0.6901;fill:#010101;}
	.st95{opacity:0.7042;fill:#010101;}
	.st96{opacity:0.7183;fill:#010101;}
	.st97{opacity:0.7324;fill:#010101;}
	.st98{opacity:0.7465;fill:#010101;}
	.st99{opacity:0.7606;fill:#010101;}
	.st100{opacity:0.7746;fill:#010101;}
	.st101{opacity:0.7887;fill:#010101;}
	.st102{opacity:0.8028;fill:#010101;}
	.st103{opacity:0.8169;fill:#010101;}
	.st104{opacity:0.831;fill:#010101;}
	.st105{opacity:0.8451;fill:#010101;}
	.st106{opacity:0.8592;fill:#010101;}
	.st107{opacity:0.8732;fill:#010101;}
	.st108{opacity:0.8873;fill:#010101;}
	.st109{opacity:0.9014;fill:#010101;}
	.st110{opacity:0.9155;fill:#010101;}
	.st111{opacity:0.9296;fill:#010101;}
	.st112{opacity:0.9437;fill:#010101;}
	.st113{opacity:0.9577;fill:#010101;}
	.st114{opacity:0.9718;fill:#010101;}
	.st115{opacity:0.9859;fill:#010101;}
	.st116{fill:#010101;}
	.st117{fill:url(#SVGID_44_);stroke:#FFFFFF;stroke-width:0.4789;stroke-miterlimit:10;}
	.st118{fill:url(#SVGID_45_);}
	.st119{fill:url(#SVGID_46_);}
	.st120{fill:url(#SVGID_47_);}
	.st121{fill:url(#SVGID_48_);}
	.st122{display:none;}
	.st123{display:inline;opacity:0.3;}
	.st124{opacity:0;fill:url(#SVGID_49_);}
	.st125{opacity:2.439024e-02;fill:url(#SVGID_50_);}
	.st126{opacity:4.878049e-02;fill:url(#SVGID_51_);}
	.st127{opacity:7.317073e-02;fill:url(#SVGID_52_);}
	.st128{opacity:9.756097e-02;fill:url(#SVGID_53_);}
	.st129{opacity:0.122;fill:url(#SVGID_54_);}
	.st130{opacity:0.1463;fill:url(#SVGID_55_);}
	.st131{opacity:0.1707;fill:url(#SVGID_56_);}
	.st132{opacity:0.1951;fill:url(#SVGID_57_);}
	.st133{opacity:0.2195;fill:url(#SVGID_58_);}
	.st134{opacity:0.2439;fill:url(#SVGID_59_);}
	.st135{opacity:0.2683;fill:url(#SVGID_60_);}
	.st136{opacity:0.2927;fill:url(#SVGID_61_);}
	.st137{opacity:0.3171;fill:url(#SVGID_62_);}
	.st138{opacity:0.3415;fill:url(#SVGID_63_);}
	.st139{opacity:0.3659;fill:url(#SVGID_64_);}
	.st140{opacity:0.3902;fill:url(#SVGID_65_);}
	.st141{opacity:0.4146;fill:url(#SVGID_66_);}
	.st142{opacity:0.439;fill:url(#SVGID_67_);}
	.st143{opacity:0.4634;fill:url(#SVGID_68_);}
	.st144{opacity:0.4878;fill:url(#SVGID_69_);}
	.st145{opacity:0.5122;fill:url(#SVGID_70_);}
	.st146{opacity:0.5366;fill:url(#SVGID_71_);}
	.st147{opacity:0.561;fill:url(#SVGID_72_);}
	.st148{opacity:0.5854;fill:url(#SVGID_73_);}
	.st149{opacity:0.6098;fill:url(#SVGID_74_);}
	.st150{opacity:0.6341;fill:url(#SVGID_75_);}
	.st151{opacity:0.6585;fill:url(#SVGID_76_);}
	.st152{opacity:0.6829;fill:url(#SVGID_77_);}
	.st153{opacity:0.7073;fill:url(#SVGID_78_);}
	.st154{opacity:0.7317;fill:url(#SVGID_79_);}
	.st155{opacity:0.7561;fill:url(#SVGID_80_);}
	.st156{opacity:0.7805;fill:url(#SVGID_81_);}
	.st157{opacity:0.8049;fill:url(#SVGID_82_);}
	.st158{opacity:0.8293;fill:url(#SVGID_83_);}
	.st159{opacity:0.8537;fill:url(#SVGID_84_);}
	.st160{opacity:0.878;fill:url(#SVGID_85_);}
	.st161{opacity:0.9024;fill:url(#SVGID_86_);}
	.st162{opacity:0.9268;fill:url(#SVGID_87_);}
	.st163{opacity:0.9512;fill:url(#SVGID_88_);}
	.st164{opacity:0.9756;fill:url(#SVGID_89_);}
	.st165{fill:url(#SVGID_90_);}
	.st166{display:inline;fill:url(#SVGID_91_);}
	.st167{display:inline;opacity:0.7;}
	.st168{display:inline;fill:url(#SVGID_92_);stroke:#FFFFFF;stroke-width:0.4789;stroke-miterlimit:10;}
	.st169{display:inline;fill:url(#SVGID_93_);}
	.st170{opacity:0;fill:url(#SVGID_94_);}
	.st171{opacity:2.439024e-02;fill:url(#SVGID_95_);}
	.st172{opacity:4.878049e-02;fill:url(#SVGID_96_);}
	.st173{opacity:7.317073e-02;fill:url(#SVGID_97_);}
	.st174{opacity:9.756097e-02;fill:url(#SVGID_98_);}
	.st175{opacity:0.122;fill:url(#SVGID_99_);}
	.st176{opacity:0.1463;fill:url(#SVGID_100_);}
	.st177{opacity:0.1707;fill:url(#SVGID_101_);}
	.st178{opacity:0.1951;fill:url(#SVGID_102_);}
	.st179{opacity:0.2195;fill:url(#SVGID_103_);}
	.st180{opacity:0.2439;fill:url(#SVGID_104_);}
	.st181{opacity:0.2683;fill:url(#SVGID_105_);}
	.st182{opacity:0.2927;fill:url(#SVGID_106_);}
	.st183{opacity:0.3171;fill:url(#SVGID_107_);}
	.st184{opacity:0.3415;fill:url(#SVGID_108_);}
	.st185{opacity:0.3659;fill:url(#SVGID_109_);}
	.st186{opacity:0.3902;fill:url(#SVGID_110_);}
	.st187{opacity:0.4146;fill:url(#SVGID_111_);}
	.st188{opacity:0.439;fill:url(#SVGID_112_);}
	.st189{opacity:0.4634;fill:url(#SVGID_113_);}
	.st190{opacity:0.4878;fill:url(#SVGID_114_);}
	.st191{opacity:0.5122;fill:url(#SVGID_115_);}
	.st192{opacity:0.5366;fill:url(#SVGID_116_);}
	.st193{opacity:0.561;fill:url(#SVGID_117_);}
	.st194{opacity:0.5854;fill:url(#SVGID_118_);}
	.st195{opacity:0.6098;fill:url(#SVGID_119_);}
	.st196{opacity:0.6341;fill:url(#SVGID_120_);}
	.st197{opacity:0.6585;fill:url(#SVGID_121_);}
	.st198{opacity:0.6829;fill:url(#SVGID_122_);}
	.st199{opacity:0.7073;fill:url(#SVGID_123_);}
	.st200{opacity:0.7317;fill:url(#SVGID_124_);}
	.st201{opacity:0.7561;fill:url(#SVGID_125_);}
	.st202{opacity:0.7805;fill:url(#SVGID_126_);}
	.st203{opacity:0.8049;fill:url(#SVGID_127_);}
	.st204{opacity:0.8293;fill:url(#SVGID_128_);}
	.st205{opacity:0.8537;fill:url(#SVGID_129_);}
	.st206{opacity:0.878;fill:url(#SVGID_130_);}
	.st207{opacity:0.9024;fill:url(#SVGID_131_);}
	.st208{opacity:0.9268;fill:url(#SVGID_132_);}
	.st209{opacity:0.9512;fill:url(#SVGID_133_);}
	.st210{opacity:0.9756;fill:url(#SVGID_134_);}
	.st211{fill:url(#SVGID_135_);}
	.st212{display:inline;fill:url(#SVGID_136_);}
	.st213{display:inline;fill:url(#SVGID_137_);stroke:#FFFFFF;stroke-width:0.4789;stroke-miterlimit:10;}
	.st214{display:inline;fill:url(#SVGID_138_);}
</style>
<g>
	<g class="st0">
		
			<radialGradient id="SVGID_1_" cx="-46.454" cy="104.8943" r="3.1871" gradientTransform="matrix(7.1054 0 0 0.3658 353.4096 6.1333)" gradientUnits="userSpaceOnUse">
			<stop  offset="0" style="stop-color:#010101"/>
			<stop  offset="1" style="stop-color:#010101"/>
		</radialGradient>
		<path class="st1" d="M42.7,44.5c0,0.7-8.7,1.3-19.4,1.3C12.6,45.8,4,45.2,4,44.5c0-0.7,8.7-1.3,19.4-1.3
			C34,43.2,42.7,43.8,42.7,44.5z"/>
		
			<radialGradient id="SVGID_2_" cx="-46.247" cy="108.8755" r="3.1981" gradientTransform="matrix(6.9057 0 0 0.3561 342.7035 5.7341)" gradientUnits="userSpaceOnUse">
			<stop  offset="0" style="stop-color:#010101"/>
			<stop  offset="1" style="stop-color:#010101"/>
		</radialGradient>
		<path class="st2" d="M4.4,44.5c0-0.7,8.5-1.3,18.9-1.3c10.5,0,18.9,0.6,18.9,1.3c0,0.7-8.5,1.3-18.9,1.3
			C12.9,45.8,4.4,45.2,4.4,44.5z"/>
		
			<radialGradient id="SVGID_3_" cx="-46.0277" cy="113.08" r="3.2097" gradientTransform="matrix(6.706 0 0 0.3464 331.9974 5.3349)" gradientUnits="userSpaceOnUse">
			<stop  offset="0" style="stop-color:#010101"/>
			<stop  offset="1" style="stop-color:#010101"/>
		</radialGradient>
		<path class="st3" d="M4.9,44.5c0-0.7,8.3-1.2,18.5-1.2c10.2,0,18.5,0.6,18.5,1.2c0,0.7-8.3,1.3-18.5,1.3
			C13.1,45.8,4.9,45.2,4.9,44.5z"/>
		
			<radialGradient id="SVGID_4_" cx="-45.795" cy="117.5269" r="3.2219" gradientTransform="matrix(6.5063 0 0 0.3367 321.2914 4.9357)" gradientUnits="userSpaceOnUse">
			<stop  offset="0" style="stop-color:#010101"/>
			<stop  offset="1" style="stop-color:#010101"/>
		</radialGradient>
		<path class="st4" d="M5.3,44.5c0-0.7,8.1-1.2,18-1.2c9.9,0,18,0.5,18,1.2c0,0.7-8.1,1.2-18,1.2C13.4,45.7,5.3,45.2,5.3,44.5z"/>
		
			<radialGradient id="SVGID_5_" cx="-45.5475" cy="122.238" r="3.235" gradientTransform="matrix(6.3066 0 0 0.327 310.5853 4.5365)" gradientUnits="userSpaceOnUse">
			<stop  offset="0" style="stop-color:#010101"/>
			<stop  offset="1" style="stop-color:#010101"/>
		</radialGradient>
		<path class="st5" d="M5.8,44.5c0-0.7,7.9-1.2,17.6-1.2s17.6,0.5,17.6,1.2c0,0.7-7.9,1.2-17.6,1.2S5.8,45.2,5.8,44.5z"/>
		
			<radialGradient id="SVGID_6_" cx="-45.2838" cy="127.2374" r="3.2489" gradientTransform="matrix(6.1069 0 0 0.3173 299.8792 4.1373)" gradientUnits="userSpaceOnUse">
			<stop  offset="0" style="stop-color:#010101"/>
			<stop  offset="1" style="stop-color:#010101"/>
		</radialGradient>
		<path class="st6" d="M6.2,44.5c0-0.6,7.7-1.2,17.1-1.2c9.4,0,17.1,0.5,17.1,1.2c0,0.6-7.7,1.2-17.1,1.2
			C13.9,45.7,6.2,45.1,6.2,44.5z"/>
		
			<radialGradient id="SVGID_7_" cx="-45.0023" cy="132.5526" r="3.2636" gradientTransform="matrix(5.9072 0 0 0.3075 289.1731 3.7381)" gradientUnits="userSpaceOnUse">
			<stop  offset="0" style="stop-color:#010101"/>
			<stop  offset="1" style="stop-color:#010101"/>
		</radialGradient>
		<path class="st7" d="M6.7,44.5c0-0.6,7.5-1.1,16.6-1.1c9.2,0,16.6,0.5,16.6,1.1c0,0.6-7.5,1.1-16.6,1.1
			C14.1,45.6,6.7,45.1,6.7,44.5z"/>
		
			<radialGradient id="SVGID_8_" cx="-44.7011" cy="138.2142" r="3.2794" gradientTransform="matrix(5.7075 0 0 0.2978 278.467 3.3389)" gradientUnits="userSpaceOnUse">
			<stop  offset="0" style="stop-color:#010101"/>
			<stop  offset="1" style="stop-color:#010101"/>
		</radialGradient>
		<path class="st8" d="M7.1,44.5c0-0.6,7.2-1.1,16.2-1.1c8.9,0,16.2,0.5,16.2,1.1c0,0.6-7.2,1.1-16.2,1.1
			C14.4,45.6,7.1,45.1,7.1,44.5z"/>
		
			<radialGradient id="SVGID_9_" cx="-44.3781" cy="144.2575" r="3.2963" gradientTransform="matrix(5.5078 0 0 0.2881 267.7609 2.9397)" gradientUnits="userSpaceOnUse">
			<stop  offset="0" style="stop-color:#010101"/>
			<stop  offset="1" style="stop-color:#010101"/>
		</radialGradient>
		<path class="st9" d="M7.6,44.5c0-0.6,7-1.1,15.7-1.1c8.7,0,15.7,0.5,15.7,1.1c0,0.6-7,1.1-15.7,1.1C14.6,45.6,7.6,45.1,7.6,44.5z"
			/>
		
			<radialGradient id="SVGID_10_" cx="-44.0307" cy="150.7223" r="3.3145" gradientTransform="matrix(5.3081 0 0 0.2784 257.0548 2.5405)" gradientUnits="userSpaceOnUse">
			<stop  offset="0" style="stop-color:#010101"/>
			<stop  offset="1" style="stop-color:#010101"/>
		</radialGradient>
		<path class="st10" d="M8.1,44.5c0-0.6,6.8-1,15.3-1c8.4,0,15.3,0.5,15.3,1c0,0.6-6.8,1-15.3,1C14.9,45.5,8.1,45.1,8.1,44.5z"/>
		
			<radialGradient id="SVGID_11_" cx="-43.6562" cy="157.6544" r="3.334" gradientTransform="matrix(5.1084 0 0 0.2687 246.3488 2.1413)" gradientUnits="userSpaceOnUse">
			<stop  offset="0" style="stop-color:#010101"/>
			<stop  offset="1" style="stop-color:#010101"/>
		</radialGradient>
		<path class="st11" d="M8.5,44.5c0-0.6,6.6-1,14.8-1c8.2,0,14.8,0.4,14.8,1c0,0.6-6.6,1-14.8,1C15.2,45.5,8.5,45.1,8.5,44.5z"/>
		
			<radialGradient id="SVGID_12_" cx="-43.2512" cy="165.1062" r="3.355" gradientTransform="matrix(4.9087 0 0 0.259 235.6427 1.7421)" gradientUnits="userSpaceOnUse">
			<stop  offset="0" style="stop-color:#010101"/>
			<stop  offset="1" style="stop-color:#010101"/>
		</radialGradient>
		<path class="st12" d="M9,44.5c0-0.5,6.4-1,14.4-1c7.9,0,14.4,0.4,14.4,1c0,0.5-6.4,1-14.4,1C15.4,45.5,9,45,9,44.5z"/>
		
			<radialGradient id="SVGID_13_" cx="-42.8119" cy="173.1385" r="3.3778" gradientTransform="matrix(4.709 0 0 0.2493 224.9366 1.3429)" gradientUnits="userSpaceOnUse">
			<stop  offset="0" style="stop-color:#010101"/>
			<stop  offset="1" style="stop-color:#010101"/>
		</radialGradient>
		<path class="st13" d="M9.4,44.5c0-0.5,6.2-0.9,13.9-0.9c7.7,0,13.9,0.4,13.9,0.9c0,0.5-6.2,0.9-13.9,0.9
			C15.7,45.4,9.4,45,9.4,44.5z"/>
		
			<radialGradient id="SVGID_14_" cx="-42.3336" cy="181.8219" r="3.4025" gradientTransform="matrix(4.5093 0 0 0.2396 214.2305 0.9437)" gradientUnits="userSpaceOnUse">
			<stop  offset="0" style="stop-color:#010101"/>
			<stop  offset="1" style="stop-color:#010101"/>
		</radialGradient>
		<path class="st14" d="M9.9,44.5c0-0.5,6-0.9,13.4-0.9c7.4,0,13.4,0.4,13.4,0.9c0,0.5-6,0.9-13.4,0.9C15.9,45.4,9.9,45,9.9,44.5z"
			/>
		
			<radialGradient id="SVGID_15_" cx="-41.8111" cy="191.2389" r="3.4295" gradientTransform="matrix(4.3096 0 0 0.2299 203.5244 0.5445)" gradientUnits="userSpaceOnUse">
			<stop  offset="0" style="stop-color:#010101"/>
			<stop  offset="1" style="stop-color:#010101"/>
		</radialGradient>
		<path class="st15" d="M10.3,44.5c0-0.5,5.8-0.9,13-0.9c7.2,0,13,0.4,13,0.9c0,0.5-5.8,0.9-13,0.9C16.2,45.4,10.3,45,10.3,44.5z"/>
		
			<radialGradient id="SVGID_16_" cx="-41.2377" cy="201.4865" r="3.4589" gradientTransform="matrix(4.1099 0 0 0.2202 192.8183 0.1453)" gradientUnits="userSpaceOnUse">
			<stop  offset="0" style="stop-color:#010101"/>
			<stop  offset="1" style="stop-color:#010101"/>
		</radialGradient>
		<path class="st16" d="M10.8,44.5c0-0.5,5.6-0.8,12.5-0.8c6.9,0,12.5,0.4,12.5,0.8c0,0.5-5.6,0.8-12.5,0.8
			C16.4,45.3,10.8,45,10.8,44.5z"/>
		
			<radialGradient id="SVGID_17_" cx="-40.6058" cy="212.6799" r="3.4913" gradientTransform="matrix(3.9102 0 0 0.2104 182.1123 -0.2539)" gradientUnits="userSpaceOnUse">
			<stop  offset="0" style="stop-color:#010101"/>
			<stop  offset="1" style="stop-color:#010101"/>
		</radialGradient>
		<path class="st17" d="M11.3,44.5c0-0.4,5.4-0.8,12.1-0.8c6.7,0,12.1,0.4,12.1,0.8c0,0.4-5.4,0.8-12.1,0.8
			C16.7,45.3,11.3,45,11.3,44.5z"/>
		
			<radialGradient id="SVGID_18_" cx="-39.9059" cy="224.956" r="3.527" gradientTransform="matrix(3.7105 0 0 0.2007 171.4062 -0.6531)" gradientUnits="userSpaceOnUse">
			<stop  offset="0" style="stop-color:#010101"/>
			<stop  offset="1" style="stop-color:#010101"/>
		</radialGradient>
		<path class="st18" d="M11.7,44.5c0-0.4,5.2-0.8,11.6-0.8c6.4,0,11.6,0.3,11.6,0.8c0,0.4-5.2,0.8-11.6,0.8
			C16.9,45.3,11.7,44.9,11.7,44.5z"/>
		
			<radialGradient id="SVGID_19_" cx="-39.1263" cy="238.4802" r="3.5666" gradientTransform="matrix(3.5108 0 0 0.191 160.7001 -1.0523)" gradientUnits="userSpaceOnUse">
			<stop  offset="0" style="stop-color:#010101"/>
			<stop  offset="1" style="stop-color:#010101"/>
		</radialGradient>
		<path class="st19" d="M12.2,44.5c0-0.4,5-0.7,11.2-0.7c6.2,0,11.2,0.3,11.2,0.7c0,0.4-5,0.7-11.2,0.7
			C17.2,45.3,12.2,44.9,12.2,44.5z"/>
		
			<radialGradient id="SVGID_20_" cx="-38.2527" cy="253.4529" r="3.6107" gradientTransform="matrix(3.3111 0 0 0.1813 149.994 -1.4516)" gradientUnits="userSpaceOnUse">
			<stop  offset="0" style="stop-color:#010101"/>
			<stop  offset="1" style="stop-color:#010101"/>
		</radialGradient>
		<path class="st20" d="M12.6,44.5c0-0.4,4.8-0.7,10.7-0.7c5.9,0,10.7,0.3,10.7,0.7c0,0.4-4.8,0.7-10.7,0.7
			C17.4,45.2,12.6,44.9,12.6,44.5z"/>
		
			<radialGradient id="SVGID_21_" cx="-37.267" cy="270.1199" r="3.6604" gradientTransform="matrix(3.1114 0 0 0.1716 139.2879 -1.8508)" gradientUnits="userSpaceOnUse">
			<stop  offset="0" style="stop-color:#010101"/>
			<stop  offset="1" style="stop-color:#010101"/>
		</radialGradient>
		<path class="st21" d="M13.1,44.5c0-0.4,4.6-0.7,10.3-0.7c5.7,0,10.3,0.3,10.3,0.7c0,0.4-4.6,0.7-10.3,0.7
			C17.7,45.2,13.1,44.9,13.1,44.5z"/>
		
			<radialGradient id="SVGID_22_" cx="-36.146" cy="288.7861" r="3.7164" gradientTransform="matrix(2.9117 0 0 0.1619 128.5818 -2.25)" gradientUnits="userSpaceOnUse">
			<stop  offset="0" style="stop-color:#010101"/>
			<stop  offset="1" style="stop-color:#010101"/>
		</radialGradient>
		<path class="st22" d="M13.5,44.5c0-0.4,4.4-0.7,9.8-0.7c5.4,0,9.8,0.3,9.8,0.7c0,0.4-4.4,0.7-9.8,0.7
			C17.9,45.2,13.5,44.9,13.5,44.5z"/>
		
			<radialGradient id="SVGID_23_" cx="-34.86" cy="309.8343" r="3.7804" gradientTransform="matrix(2.712 0 0 0.1522 117.8758 -2.6492)" gradientUnits="userSpaceOnUse">
			<stop  offset="0" style="stop-color:#010101"/>
			<stop  offset="1" style="stop-color:#010101"/>
		</radialGradient>
		<path class="st23" d="M14,44.5c0-0.3,4.2-0.6,9.3-0.6c5.2,0,9.3,0.3,9.3,0.6c0,0.3-4.2,0.6-9.3,0.6C18.2,45.1,14,44.8,14,44.5z"/>
		
			<radialGradient id="SVGID_24_" cx="-33.3695" cy="333.7513" r="3.8541" gradientTransform="matrix(2.5123 0 0 0.1425 107.1697 -3.0484)" gradientUnits="userSpaceOnUse">
			<stop  offset="0" style="stop-color:#010101"/>
			<stop  offset="1" style="stop-color:#010101"/>
		</radialGradient>
		<path class="st24" d="M14.5,44.5c0-0.3,4-0.6,8.9-0.6c4.9,0,8.9,0.3,8.9,0.6c0,0.3-4,0.6-8.9,0.6C18.4,45.1,14.5,44.8,14.5,44.5z"
			/>
		
			<radialGradient id="SVGID_25_" cx="-31.6216" cy="361.1666" r="3.9397" gradientTransform="matrix(2.3126 0 0 0.1328 96.4636 -3.4476)" gradientUnits="userSpaceOnUse">
			<stop  offset="0" style="stop-color:#010101"/>
			<stop  offset="1" style="stop-color:#010101"/>
		</radialGradient>
		<path class="st25" d="M14.9,44.5c0-0.3,3.8-0.6,8.4-0.6c4.7,0,8.4,0.3,8.4,0.6c0,0.3-3.8,0.6-8.4,0.6
			C18.7,45.1,14.9,44.8,14.9,44.5z"/>
		
			<radialGradient id="SVGID_26_" cx="-29.5433" cy="392.9084" r="4.0408" gradientTransform="matrix(2.1129 0 0 0.1231 85.7575 -3.8468)" gradientUnits="userSpaceOnUse">
			<stop  offset="0" style="stop-color:#010101"/>
			<stop  offset="1" style="stop-color:#010101"/>
		</radialGradient>
		<path class="st26" d="M15.4,44.5c0-0.3,3.6-0.5,8-0.5c4.4,0,8,0.2,8,0.5c0,0.3-3.6,0.5-8,0.5C18.9,45,15.4,44.8,15.4,44.5z"/>
		
			<radialGradient id="SVGID_27_" cx="-27.0311" cy="430.0884" r="4.1617" gradientTransform="matrix(1.9132 0 0 0.1133 75.0514 -4.246)" gradientUnits="userSpaceOnUse">
			<stop  offset="0" style="stop-color:#010101"/>
			<stop  offset="1" style="stop-color:#010101"/>
		</radialGradient>
		<path class="st27" d="M15.8,44.5c0-0.3,3.4-0.5,7.5-0.5c4.1,0,7.5,0.2,7.5,0.5c0,0.3-3.4,0.5-7.5,0.5C19.2,45,15.8,44.8,15.8,44.5
			z"/>
		
			<radialGradient id="SVGID_28_" cx="-23.9334" cy="474.2353" r="4.3091" gradientTransform="matrix(1.7135 0 0 0.1036 64.3453 -4.6452)" gradientUnits="userSpaceOnUse">
			<stop  offset="0" style="stop-color:#010101"/>
			<stop  offset="1" style="stop-color:#010101"/>
		</radialGradient>
		<path class="st28" d="M16.3,44.5c0-0.3,3.2-0.5,7.1-0.5c3.9,0,7.1,0.2,7.1,0.5c0,0.3-3.2,0.5-7.1,0.5C19.4,45,16.3,44.8,16.3,44.5
			z"/>
		
			<radialGradient id="SVGID_29_" cx="-20.0184" cy="527.5096" r="4.493" gradientTransform="matrix(1.5138 0 0 9.392683e-02 53.6392 -5.0444)" gradientUnits="userSpaceOnUse">
			<stop  offset="0" style="stop-color:#010101"/>
			<stop  offset="1" style="stop-color:#010101"/>
		</radialGradient>
		<path class="st29" d="M16.7,44.5c0-0.2,3-0.4,6.6-0.4c3.6,0,6.6,0.2,6.6,0.4c0,0.2-3,0.4-6.6,0.4C19.7,44.9,16.7,44.7,16.7,44.5z"
			/>
		
			<radialGradient id="SVGID_30_" cx="-14.9134" cy="593.0684" r="4.7292" gradientTransform="matrix(1.3141 0 0 8.421707e-02 42.9332 -5.4436)" gradientUnits="userSpaceOnUse">
			<stop  offset="0" style="stop-color:#010101"/>
			<stop  offset="1" style="stop-color:#010101"/>
		</radialGradient>
		<path class="st30" d="M17.2,44.5c0-0.2,2.7-0.4,6.1-0.4c3.4,0,6.1,0.2,6.1,0.4c0,0.2-2.8,0.4-6.1,0.4
			C19.9,44.9,17.2,44.7,17.2,44.5z"/>
		
			<radialGradient id="SVGID_31_" cx="-7.9789" cy="675.7143" r="5.0444" gradientTransform="matrix(1.1144 0 0 7.450732e-02 32.2271 -5.8428)" gradientUnits="userSpaceOnUse">
			<stop  offset="0" style="stop-color:#010101"/>
			<stop  offset="1" style="stop-color:#010101"/>
		</radialGradient>
		<path class="st31" d="M17.6,44.5c0-0.2,2.5-0.4,5.7-0.4c3.1,0,5.7,0.2,5.7,0.4c0,0.2-2.5,0.4-5.7,0.4
			C20.2,44.9,17.6,44.7,17.6,44.5z"/>
		
			<radialGradient id="SVGID_32_" cx="1.9837" cy="783.1288" r="5.488" gradientTransform="matrix(0.9147 0 0 6.479756e-02 21.521 -6.242)" gradientUnits="userSpaceOnUse">
			<stop  offset="0" style="stop-color:#010101"/>
			<stop  offset="1" style="stop-color:#010101"/>
		</radialGradient>
		<path class="st32" d="M18.1,44.5c0-0.2,2.3-0.3,5.2-0.3c2.9,0,5.2,0.2,5.2,0.3c0,0.2-2.3,0.3-5.2,0.3
			C20.4,44.8,18.1,44.7,18.1,44.5z"/>
		
			<radialGradient id="SVGID_33_" cx="17.5112" cy="928.409" r="6.1634" gradientTransform="matrix(0.715 0 0 5.508780e-02 10.8149 -6.6412)" gradientUnits="userSpaceOnUse">
			<stop  offset="0" style="stop-color:#010101"/>
			<stop  offset="1" style="stop-color:#010101"/>
		</radialGradient>
		<path class="st33" d="M18.6,44.5c0-0.2,2.1-0.3,4.8-0.3c2.6,0,4.8,0.1,4.8,0.3c0,0.2-2.1,0.3-4.8,0.3
			C20.7,44.8,18.6,44.7,18.6,44.5z"/>
		
			<radialGradient id="SVGID_34_" cx="45.074" cy="1135.8618" r="7.3328" gradientTransform="matrix(0.5153 0 0 4.537805e-02 0.1088 -7.0404)" gradientUnits="userSpaceOnUse">
			<stop  offset="0" style="stop-color:#010101"/>
			<stop  offset="1" style="stop-color:#010101"/>
		</radialGradient>
		<path class="st34" d="M19,44.5c0-0.2,1.9-0.3,4.3-0.3c2.4,0,4.3,0.1,4.3,0.3c0,0.2-1.9,0.3-4.3,0.3C21,44.8,19,44.7,19,44.5z"/>
		
			<radialGradient id="SVGID_35_" cx="107.5181" cy="1456.2617" r="9.9295" gradientTransform="matrix(0.3156 0 0 3.566829e-02 -10.5973 -7.4396)" gradientUnits="userSpaceOnUse">
			<stop  offset="0" style="stop-color:#010101"/>
			<stop  offset="1" style="stop-color:#010101"/>
		</radialGradient>
		<path class="st35" d="M19.5,44.5c0-0.1,1.7-0.2,3.9-0.2c2.1,0,3.9,0.1,3.9,0.2c0,0.1-1.7,0.2-3.9,0.2
			C21.2,44.7,19.5,44.6,19.5,44.5z"/>
		
			<radialGradient id="SVGID_36_" cx="385.1492" cy="2016.3519" r="21.576" gradientTransform="matrix(0.1159 0 0 2.595854e-02 -21.3033 -7.8388)" gradientUnits="userSpaceOnUse">
			<stop  offset="0" style="stop-color:#010101"/>
			<stop  offset="1" style="stop-color:#010101"/>
		</radialGradient>
		<path class="st36" d="M19.9,44.5c0-0.1,1.5-0.2,3.4-0.2c1.9,0,3.4,0.1,3.4,0.2c0,0.1-1.5,0.2-3.4,0.2
			C21.5,44.7,19.9,44.6,19.9,44.5z"/>
		
			<radialGradient id="SVGID_37_" cx="-660.4399" cy="3245.8267" r="26.1193" gradientTransform="matrix(-8.380000e-02 0 0 1.624878e-02 -32.0094 -8.238)" gradientUnits="userSpaceOnUse">
			<stop  offset="0" style="stop-color:#010101"/>
			<stop  offset="1" style="stop-color:#010101"/>
		</radialGradient>
		<path class="st37" d="M20.4,44.5c0-0.1,1.3-0.2,2.9-0.2c1.6,0,2.9,0.1,2.9,0.2c0,0.1-1.3,0.2-2.9,0.2
			C21.7,44.7,20.4,44.6,20.4,44.5z"/>
		
			<radialGradient id="SVGID_38_" cx="-232.9839" cy="8126.5796" r="17.5546" gradientTransform="matrix(-0.2835 0 0 6.539024e-03 -42.7155 -8.6372)" gradientUnits="userSpaceOnUse">
			<stop  offset="0" style="stop-color:#010101"/>
			<stop  offset="1" style="stop-color:#010101"/>
		</radialGradient>
		<path class="st38" d="M20.8,44.5c0-0.1,1.1-0.2,2.5-0.2c1.4,0,2.5,0.1,2.5,0.2c0,0.1-1.1,0.2-2.5,0.2C22,44.7,20.8,44.6,20.8,44.5
			z"/>
		
			<radialGradient id="SVGID_39_" cx="-158.8515" cy="-16885.4004" r="27.028" gradientTransform="matrix(-0.4832 0 0 -3.170732e-03 -53.4216 -9.0364)" gradientUnits="userSpaceOnUse">
			<stop  offset="0" style="stop-color:#010101"/>
			<stop  offset="1" style="stop-color:#010101"/>
		</radialGradient>
		<path class="st39" d="M21.3,44.5c0-0.1,0.9-0.1,2-0.1c1.1,0,2,0.1,2,0.1c0,0.1-0.9,0.1-2,0.1C22.2,44.6,21.3,44.6,21.3,44.5z"/>
		
			<radialGradient id="SVGID_40_" cx="-128.076" cy="-4187.5938" r="5.1565" gradientTransform="matrix(-0.6829 0 0 -1.288049e-02 -64.1277 -9.4356)" gradientUnits="userSpaceOnUse">
			<stop  offset="0" style="stop-color:#010101"/>
			<stop  offset="1" style="stop-color:#010101"/>
		</radialGradient>
		<path class="st40" d="M21.8,44.5c0,0,0.7-0.1,1.6-0.1c0.9,0,1.6,0,1.6,0.1c0,0-0.7,0.1-1.6,0.1C22.5,44.6,21.8,44.6,21.8,44.5z"/>
		
			<radialGradient id="SVGID_41_" cx="-111.2273" cy="-2405.3494" r="2.0178" gradientTransform="matrix(-0.8826 0 0 -2.259024e-02 -74.8338 -9.8348)" gradientUnits="userSpaceOnUse">
			<stop  offset="0" style="stop-color:#010101"/>
			<stop  offset="1" style="stop-color:#010101"/>
		</radialGradient>
		<path class="st41" d="M22.2,44.5c0,0,0.5-0.1,1.1-0.1c0.6,0,1.1,0,1.1,0.1c0,0-0.5,0.1-1.1,0.1C22.7,44.6,22.2,44.5,22.2,44.5z"/>
		
			<radialGradient id="SVGID_42_" cx="-100.5962" cy="-1694.6318" r="0.7222" gradientTransform="matrix(-1.0823 0 0 -3.230000e-02 -85.5398 -10.234)" gradientUnits="userSpaceOnUse">
			<stop  offset="0" style="stop-color:#010101"/>
			<stop  offset="1" style="stop-color:#010101"/>
		</radialGradient>
		<path class="st42" d="M22.7,44.5c0,0,0.3,0,0.7,0c0.4,0,0.7,0,0.7,0c0,0-0.3,0-0.7,0C23,44.5,22.7,44.5,22.7,44.5z"/>
	</g>
	<linearGradient id="SVGID_43_" gradientUnits="userSpaceOnUse" x1="0.52" y1="21.7552" x2="43.7124" y2="21.7552">
		<stop  offset="0" style="stop-color:#019547"/>
		<stop  offset="1" style="stop-color:#034827"/>
	</linearGradient>
	<path class="st43" d="M22.1,0.3C10.2,0.3,0.5,10,0.5,21.9v21.2c6.7-4.4,14.2-1.9,19.4-0.5c3,0.8,6.1,0.8,9-0.2
		c8.6-2.8,14.8-10.9,14.8-20.5C43.7,10,34,0.3,22.1,0.3z"/>
	<g class="st44">
		<path class="st45" d="M23.8,41.5C13.6,41.5,5.3,33.2,5.3,23S13.6,4.5,23.8,4.5C34,4.5,42.4,12.8,42.4,23S34,41.5,23.8,41.5z"/>
		<path class="st46" d="M23.8,41.5C13.6,41.5,5.3,33.2,5.3,23S13.6,4.5,23.8,4.5C34,4.5,42.3,12.8,42.3,23S34,41.5,23.8,41.5z"/>
		<path class="st47" d="M23.8,41.5C13.6,41.5,5.2,33.2,5.2,23S13.6,4.5,23.8,4.5C34,4.5,42.3,12.8,42.3,23S34,41.5,23.8,41.5z"/>
		<path class="st48" d="M23.7,41.5C13.5,41.5,5.2,33.2,5.2,23S13.5,4.5,23.7,4.5C34,4.5,42.3,12.8,42.3,23S34,41.5,23.7,41.5z"/>
		<path class="st49" d="M23.7,41.5C13.5,41.5,5.2,33.2,5.2,23S13.5,4.4,23.7,4.4c10.2,0,18.5,8.3,18.5,18.5S33.9,41.5,23.7,41.5z"/>
		<path class="st50" d="M23.7,41.4c-10.2,0-18.5-8.3-18.5-18.5S13.5,4.4,23.7,4.4c10.2,0,18.5,8.3,18.5,18.5S33.9,41.4,23.7,41.4z"
			/>
		<path class="st51" d="M23.7,41.4c-10.2,0-18.5-8.3-18.5-18.5S13.5,4.4,23.7,4.4c10.2,0,18.5,8.3,18.5,18.5S33.9,41.4,23.7,41.4z"
			/>
		<path class="st52" d="M23.6,41.4c-10.2,0-18.5-8.3-18.5-18.5S13.5,4.4,23.6,4.4c10.2,0,18.5,8.3,18.5,18.5S33.8,41.4,23.6,41.4z"
			/>
		<path class="st53" d="M23.6,41.4c-10.2,0-18.5-8.3-18.5-18.5S13.4,4.4,23.6,4.4c10.2,0,18.5,8.3,18.5,18.5S33.8,41.4,23.6,41.4z"
			/>
		<path class="st54" d="M23.6,41.3c-10.2,0-18.4-8.3-18.4-18.4S13.4,4.4,23.6,4.4C33.8,4.4,42,12.7,42,22.9S33.8,41.3,23.6,41.3z"/>
		<path class="st55" d="M23.6,41.3C13.4,41.3,5.1,33,5.1,22.9S13.4,4.4,23.6,4.4C33.7,4.4,42,12.7,42,22.9S33.7,41.3,23.6,41.3z"/>
		<path class="st56" d="M23.5,41.3C13.4,41.3,5.1,33,5.1,22.9S13.4,4.4,23.5,4.4C33.7,4.4,42,12.7,42,22.9S33.7,41.3,23.5,41.3z"/>
		<path class="st57" d="M23.5,41.3C13.4,41.3,5.1,33,5.1,22.9S13.4,4.4,23.5,4.4c10.2,0,18.4,8.3,18.4,18.4S33.7,41.3,23.5,41.3z"/>
		<path class="st58" d="M23.5,41.3C13.3,41.3,5.1,33,5.1,22.8S13.3,4.4,23.5,4.4c10.1,0,18.4,8.3,18.4,18.4S33.6,41.3,23.5,41.3z"/>
		<path class="st59" d="M23.5,41.2C13.3,41.2,5.1,33,5.1,22.8S13.3,4.4,23.5,4.4c10.1,0,18.4,8.3,18.4,18.4S33.6,41.2,23.5,41.2z"/>
		<path class="st60" d="M23.4,41.2C13.3,41.2,5.1,33,5.1,22.8S13.3,4.4,23.4,4.4c10.1,0,18.4,8.2,18.4,18.4S33.6,41.2,23.4,41.2z"/>
		<path class="st61" d="M23.4,41.2C13.3,41.2,5,32.9,5,22.8S13.3,4.4,23.4,4.4c10.1,0,18.4,8.2,18.4,18.4S33.6,41.2,23.4,41.2z"/>
		<path class="st62" d="M23.4,41.2C13.3,41.2,5,32.9,5,22.8S13.3,4.4,23.4,4.4c10.1,0,18.4,8.2,18.4,18.4S33.5,41.2,23.4,41.2z"/>
		<path class="st63" d="M23.4,41.1C13.2,41.1,5,32.9,5,22.8S13.2,4.4,23.4,4.4c10.1,0,18.4,8.2,18.4,18.4S33.5,41.1,23.4,41.1z"/>
		<path class="st64" d="M23.3,41.1C13.2,41.1,5,32.9,5,22.8S13.2,4.4,23.3,4.4c10.1,0,18.3,8.2,18.3,18.3S33.5,41.1,23.3,41.1z"/>
		<path class="st65" d="M23.3,41.1C13.2,41.1,5,32.9,5,22.8S13.2,4.4,23.3,4.4c10.1,0,18.3,8.2,18.3,18.3S33.4,41.1,23.3,41.1z"/>
		<path class="st66" d="M23.3,41.1C13.2,41.1,5,32.9,5,22.8S13.2,4.4,23.3,4.4c10.1,0,18.3,8.2,18.3,18.3S33.4,41.1,23.3,41.1z"/>
		<path class="st67" d="M23.3,41.1C13.2,41.1,5,32.8,5,22.7S13.2,4.4,23.3,4.4c10.1,0,18.3,8.2,18.3,18.3S33.4,41.1,23.3,41.1z"/>
		<path class="st68" d="M23.2,41C13.2,41,4.9,32.8,4.9,22.7S13.2,4.4,23.2,4.4c10.1,0,18.3,8.2,18.3,18.3S33.3,41,23.2,41z"/>
		<path class="st69" d="M23.2,41C13.1,41,4.9,32.8,4.9,22.7S13.1,4.4,23.2,4.4c10.1,0,18.3,8.2,18.3,18.3S33.3,41,23.2,41z"/>
		<path class="st70" d="M23.2,41C13.1,41,4.9,32.8,4.9,22.7S13.1,4.4,23.2,4.4c10.1,0,18.3,8.2,18.3,18.3S33.3,41,23.2,41z"/>
		<path class="st71" d="M23.2,41C13.1,41,4.9,32.8,4.9,22.7S13.1,4.4,23.2,4.4c10.1,0,18.3,8.2,18.3,18.3S33.2,41,23.2,41z"/>
		<path class="st72" d="M23.1,40.9c-10.1,0-18.3-8.2-18.3-18.3S13.1,4.4,23.1,4.4c10.1,0,18.3,8.2,18.3,18.3S33.2,40.9,23.1,40.9z"
			/>
		<path class="st73" d="M23.1,40.9c-10.1,0-18.2-8.2-18.2-18.2S13.1,4.4,23.1,4.4c10.1,0,18.2,8.2,18.2,18.2S33.2,40.9,23.1,40.9z"
			/>
		<path class="st74" d="M23.1,40.9C13,40.9,4.9,32.7,4.9,22.7S13,4.4,23.1,4.4c10.1,0,18.2,8.2,18.2,18.2S33.1,40.9,23.1,40.9z"/>
		<path class="st75" d="M23.1,40.9C13,40.9,4.8,32.7,4.8,22.6S13,4.4,23.1,4.4c10,0,18.2,8.2,18.2,18.2S33.1,40.9,23.1,40.9z"/>
		<path class="st76" d="M23,40.9c-10,0-18.2-8.2-18.2-18.2S13,4.4,23,4.4c10,0,18.2,8.2,18.2,18.2S33.1,40.9,23,40.9z"/>
		<path class="st77" d="M23,40.8c-10,0-18.2-8.2-18.2-18.2S13,4.4,23,4.4c10,0,18.2,8.2,18.2,18.2S33.1,40.8,23,40.8z"/>
		<path class="st78" d="M23,40.8c-10,0-18.2-8.2-18.2-18.2S13,4.4,23,4.4c10,0,18.2,8.2,18.2,18.2S33,40.8,23,40.8z"/>
		<path class="st79" d="M23,40.8c-10,0-18.2-8.2-18.2-18.2S12.9,4.4,23,4.4c10,0,18.2,8.2,18.2,18.2S33,40.8,23,40.8z"/>
		<path class="st80" d="M22.9,40.8c-10,0-18.2-8.2-18.2-18.2S12.9,4.4,22.9,4.4c10,0,18.2,8.2,18.2,18.2S33,40.8,22.9,40.8z"/>
		<path class="st81" d="M22.9,40.7c-10,0-18.2-8.1-18.2-18.2S12.9,4.4,22.9,4.4c10,0,18.2,8.1,18.2,18.2S32.9,40.7,22.9,40.7z"/>
		<path class="st82" d="M22.9,40.7c-10,0-18.2-8.1-18.2-18.2S12.9,4.4,22.9,4.4c10,0,18.2,8.1,18.2,18.2S32.9,40.7,22.9,40.7z"/>
		<path class="st83" d="M22.9,40.7c-10,0-18.1-8.1-18.1-18.1S12.9,4.4,22.9,4.4c10,0,18.1,8.1,18.1,18.1S32.9,40.7,22.9,40.7z"/>
		<path class="st84" d="M22.8,40.7c-10,0-18.1-8.1-18.1-18.1S12.8,4.4,22.8,4.4c10,0,18.1,8.1,18.1,18.1S32.8,40.7,22.8,40.7z"/>
		<path class="st85" d="M22.8,40.7c-10,0-18.1-8.1-18.1-18.1S12.8,4.4,22.8,4.4c10,0,18.1,8.1,18.1,18.1S32.8,40.7,22.8,40.7z"/>
		<path class="st86" d="M22.8,40.6c-10,0-18.1-8.1-18.1-18.1S12.8,4.4,22.8,4.4c10,0,18.1,8.1,18.1,18.1S32.8,40.6,22.8,40.6z"/>
		<path class="st87" d="M22.8,40.6c-10,0-18.1-8.1-18.1-18.1S12.8,4.4,22.8,4.4c10,0,18.1,8.1,18.1,18.1S32.7,40.6,22.8,40.6z"/>
		<path class="st88" d="M22.7,40.6c-10,0-18.1-8.1-18.1-18.1S12.8,4.4,22.7,4.4c10,0,18.1,8.1,18.1,18.1S32.7,40.6,22.7,40.6z"/>
		<path class="st89" d="M22.7,40.6c-10,0-18.1-8.1-18.1-18.1S12.7,4.4,22.7,4.4c10,0,18.1,8.1,18.1,18.1S32.7,40.6,22.7,40.6z"/>
		<path class="st90" d="M22.7,40.5c-10,0-18.1-8.1-18.1-18.1S12.7,4.4,22.7,4.4c10,0,18.1,8.1,18.1,18.1S32.7,40.5,22.7,40.5z"/>
		<path class="st91" d="M22.7,40.5c-10,0-18.1-8.1-18.1-18.1S12.7,4.4,22.7,4.4c10,0,18.1,8.1,18.1,18.1S32.6,40.5,22.7,40.5z"/>
		<path class="st92" d="M22.6,40.5c-10,0-18-8.1-18-18s8.1-18,18-18c10,0,18,8.1,18,18S32.6,40.5,22.6,40.5z"/>
		<path class="st93" d="M22.6,40.5c-9.9,0-18-8.1-18-18s8.1-18,18-18c9.9,0,18,8.1,18,18S32.6,40.5,22.6,40.5z"/>
		<path class="st94" d="M22.6,40.4c-9.9,0-18-8.1-18-18s8.1-18,18-18c9.9,0,18,8.1,18,18S32.5,40.4,22.6,40.4z"/>
		<path class="st95" d="M22.6,40.4c-9.9,0-18-8.1-18-18s8.1-18,18-18c9.9,0,18,8.1,18,18S32.5,40.4,22.6,40.4z"/>
		<path class="st96" d="M22.5,40.4c-9.9,0-18-8.1-18-18s8.1-18,18-18c9.9,0,18,8.1,18,18S32.5,40.4,22.5,40.4z"/>
		<path class="st97" d="M22.5,40.4c-9.9,0-18-8.1-18-18s8.1-18,18-18c9.9,0,18,8.1,18,18S32.4,40.4,22.5,40.4z"/>
		<path class="st98" d="M22.5,40.4c-9.9,0-18-8.1-18-18s8.1-18,18-18c9.9,0,18,8.1,18,18S32.4,40.4,22.5,40.4z"/>
		<path class="st99" d="M22.5,40.3c-9.9,0-18-8.1-18-18s8.1-18,18-18c9.9,0,18,8.1,18,18S32.4,40.3,22.5,40.3z"/>
		<path class="st100" d="M22.4,40.3c-9.9,0-18-8.1-18-18s8.1-18,18-18c9.9,0,18,8.1,18,18S32.3,40.3,22.4,40.3z"/>
		<path class="st101" d="M22.4,40.3c-9.9,0-18-8.1-18-18s8.1-18,18-18c9.9,0,18,8.1,18,18S32.3,40.3,22.4,40.3z"/>
		<path class="st102" d="M22.4,40.3c-9.9,0-17.9-8-17.9-17.9s8-17.9,17.9-17.9c9.9,0,17.9,8,17.9,17.9S32.3,40.3,22.4,40.3z"/>
		<path class="st103" d="M22.4,40.2c-9.9,0-17.9-8-17.9-17.9s8-17.9,17.9-17.9c9.9,0,17.9,8,17.9,17.9S32.2,40.2,22.4,40.2z"/>
		<path class="st104" d="M22.3,40.2c-9.9,0-17.9-8-17.9-17.9s8-17.9,17.9-17.9c9.9,0,17.9,8,17.9,17.9S32.2,40.2,22.3,40.2z"/>
		<path class="st105" d="M22.3,40.2c-9.9,0-17.9-8-17.9-17.9s8-17.9,17.9-17.9c9.9,0,17.9,8,17.9,17.9S32.2,40.2,22.3,40.2z"/>
		<path class="st106" d="M22.3,40.2c-9.9,0-17.9-8-17.9-17.9s8-17.9,17.9-17.9c9.9,0,17.9,8,17.9,17.9S32.2,40.2,22.3,40.2z"/>
		<path class="st107" d="M22.3,40.2c-9.9,0-17.9-8-17.9-17.9s8-17.9,17.9-17.9c9.9,0,17.9,8,17.9,17.9S32.1,40.2,22.3,40.2z"/>
		<path class="st108" d="M22.2,40.1c-9.9,0-17.9-8-17.9-17.9s8-17.9,17.9-17.9c9.9,0,17.9,8,17.9,17.9S32.1,40.1,22.2,40.1z"/>
		<path class="st109" d="M22.2,40.1c-9.9,0-17.9-8-17.9-17.9s8-17.9,17.9-17.9c9.9,0,17.9,8,17.9,17.9S32.1,40.1,22.2,40.1z"/>
		<path class="st110" d="M22.2,40.1c-9.8,0-17.9-8-17.9-17.9s8-17.9,17.9-17.9c9.8,0,17.9,8,17.9,17.9S32,40.1,22.2,40.1z"/>
		<path class="st111" d="M22.2,40.1c-9.8,0-17.8-8-17.8-17.8s8-17.8,17.8-17.8c9.8,0,17.8,8,17.8,17.8S32,40.1,22.2,40.1z"/>
		<path class="st112" d="M22.1,40c-9.8,0-17.8-8-17.8-17.8s8-17.8,17.8-17.8c9.8,0,17.8,8,17.8,17.8S32,40,22.1,40z"/>
		<path class="st113" d="M22.1,40c-9.8,0-17.8-8-17.8-17.8s8-17.8,17.8-17.8c9.8,0,17.8,8,17.8,17.8S31.9,40,22.1,40z"/>
		<path class="st114" d="M22.1,40c-9.8,0-17.8-8-17.8-17.8s8-17.8,17.8-17.8c9.8,0,17.8,8,17.8,17.8S31.9,40,22.1,40z"/>
		<path class="st115" d="M22.1,40c-9.8,0-17.8-8-17.8-17.8s8-17.8,17.8-17.8c9.8,0,17.8,8,17.8,17.8S31.9,40,22.1,40z"/>
		<path class="st116" d="M22,40c-9.8,0-17.8-8-17.8-17.8S12.2,4.4,22,4.4c9.8,0,17.8,8,17.8,17.8S31.8,40,22,40z"/>
	</g>
	<linearGradient id="SVGID_44_" gradientUnits="userSpaceOnUse" x1="9.5616" y1="9.6944" x2="34.7134" y2="34.8462">
		<stop  offset="0" style="stop-color:#C3C4C3"/>
		<stop  offset="0.215" style="stop-color:#D7D7D6"/>
		<stop  offset="0.4828" style="stop-color:#EBEAE9"/>
		<stop  offset="0.7466" style="stop-color:#F8F8F7"/>
		<stop  offset="1" style="stop-color:#FFFFFF"/>
	</linearGradient>
	<path class="st117" d="M22,40c-9.8,0-17.8-8-17.8-17.8S12.2,4.4,22,4.4c9.8,0,17.8,8,17.8,17.8S31.8,40,22,40z"/>
	<g>
		<linearGradient id="SVGID_45_" gradientUnits="userSpaceOnUse" x1="15.2847" y1="26.8069" x2="30.0523" y2="26.8069">
			<stop  offset="0" style="stop-color:#034827"/>
			<stop  offset="1" style="stop-color:#019547"/>
		</linearGradient>
		<path class="st118" d="M22.7,26l-1.9-1.7L15.3,29c0.2,0.2,0.5,0.3,0.8,0.3h13.2c0.3,0,0.6-0.1,0.8-0.3l-5.5-4.7L22.7,26z"/>
		<linearGradient id="SVGID_46_" gradientUnits="userSpaceOnUse" x1="25.064" y1="23.8107" x2="30.4038" y2="23.8107">
			<stop  offset="0" style="stop-color:#034827"/>
			<stop  offset="1" style="stop-color:#019547"/>
		</linearGradient>
		<polygon class="st119" points="30.4,28.4 30.4,19.2 25.1,23.9 		"/>
		<linearGradient id="SVGID_47_" gradientUnits="userSpaceOnUse" x1="14.9351" y1="18.2526" x2="30.4038" y2="18.2526">
			<stop  offset="0" style="stop-color:#034827"/>
			<stop  offset="1" style="stop-color:#019547"/>
		</linearGradient>
		<polygon class="st120" points="30.4,18.3 22.7,11.6 14.9,18.3 22.7,24.9 		"/>
		<linearGradient id="SVGID_48_" gradientUnits="userSpaceOnUse" x1="14.9351" y1="23.8123" x2="20.2749" y2="23.8123">
			<stop  offset="0" style="stop-color:#034827"/>
			<stop  offset="1" style="stop-color:#019547"/>
		</linearGradient>
		<polygon class="st121" points="14.9,19.2 14.9,28.4 20.3,23.9 		"/>
	</g>
</g>
<g class="st122">
	<g class="st123">
		
			<radialGradient id="SVGID_49_" cx="-46.2589" cy="104.2185" r="3.1867" gradientTransform="matrix(7.1021 -0.2174 1.120000e-02 0.3656 351.4802 -3.7604)" gradientUnits="userSpaceOnUse">
			<stop  offset="0" style="stop-color:#010101"/>
			<stop  offset="1" style="stop-color:#010101"/>
		</radialGradient>
		<path class="st124" d="M43.5,43.8c0,0.7-8.6,1.6-19.3,1.9C13.5,46,4.8,45.7,4.7,45c0-0.7,8.6-1.6,19.3-1.9
			C34.8,42.8,43.5,43.1,43.5,43.8z"/>
		
			<radialGradient id="SVGID_50_" cx="-46.0449" cy="108.2132" r="3.1977" gradientTransform="matrix(6.9025 -0.2113 1.090244e-02 0.3559 340.7567 -3.8429)" gradientUnits="userSpaceOnUse">
			<stop  offset="0" style="stop-color:#010101"/>
			<stop  offset="1" style="stop-color:#010101"/>
		</radialGradient>
		<path class="st125" d="M5.2,45c0-0.7,8.4-1.5,18.9-1.9c10.4-0.3,18.9,0,19,0.7c0,0.7-8.4,1.5-18.9,1.9C13.7,46,5.2,45.7,5.2,45z"
			/>
		
			<radialGradient id="SVGID_51_" cx="-45.8181" cy="112.4319" r="3.2092" gradientTransform="matrix(6.7029 -0.2052 1.060488e-02 0.3462 330.0332 -3.9253)" gradientUnits="userSpaceOnUse">
			<stop  offset="0" style="stop-color:#010101"/>
			<stop  offset="1" style="stop-color:#010101"/>
		</radialGradient>
		<path class="st126" d="M5.7,45c0-0.7,8.2-1.5,18.4-1.8c10.2-0.3,18.5,0,18.5,0.7c0,0.7-8.2,1.5-18.4,1.8C14,46,5.7,45.7,5.7,45z"
			/>
		
			<radialGradient id="SVGID_52_" cx="-45.5774" cy="116.894" r="3.2215" gradientTransform="matrix(6.5033 -0.1991 1.030732e-02 0.3365 319.3097 -4.0078)" gradientUnits="userSpaceOnUse">
			<stop  offset="0" style="stop-color:#010101"/>
			<stop  offset="1" style="stop-color:#010101"/>
		</radialGradient>
		<path class="st127" d="M6.1,44.9c0-0.7,8-1.5,18-1.8c9.9-0.3,18,0,18,0.7c0,0.7-8,1.5-18,1.8C14.2,45.9,6.1,45.6,6.1,44.9z"/>
		
			<radialGradient id="SVGID_53_" cx="-45.3214" cy="121.621" r="3.2345" gradientTransform="matrix(6.3037 -0.193 1.000976e-02 0.3268 308.5861 -4.0902)" gradientUnits="userSpaceOnUse">
			<stop  offset="0" style="stop-color:#010101"/>
			<stop  offset="1" style="stop-color:#010101"/>
		</radialGradient>
		<path class="st128" d="M6.6,44.9c0-0.7,7.8-1.4,17.5-1.7c9.7-0.3,17.6,0,17.6,0.6c0,0.7-7.8,1.4-17.5,1.7
			C14.5,45.9,6.6,45.6,6.6,44.9z"/>
		
			<radialGradient id="SVGID_54_" cx="-45.0488" cy="126.6375" r="3.2483" gradientTransform="matrix(6.1041 -0.1869 9.712195e-03 0.3171 297.8626 -4.1726)" gradientUnits="userSpaceOnUse">
			<stop  offset="0" style="stop-color:#010101"/>
			<stop  offset="1" style="stop-color:#010101"/>
		</radialGradient>
		<path class="st129" d="M7,44.9c0-0.6,7.6-1.4,17.1-1.7c9.4-0.3,17.1,0,17.1,0.6c0,0.6-7.6,1.4-17.1,1.7C14.7,45.8,7,45.6,7,44.9z"
			/>
		
			<radialGradient id="SVGID_55_" cx="-44.7576" cy="131.9707" r="3.263" gradientTransform="matrix(5.9045 -0.1807 9.414634e-03 0.3074 287.1391 -4.2551)" gradientUnits="userSpaceOnUse">
			<stop  offset="0" style="stop-color:#010101"/>
			<stop  offset="1" style="stop-color:#010101"/>
		</radialGradient>
		<path class="st130" d="M7.5,44.9c0-0.6,7.4-1.4,16.6-1.6c9.2-0.3,16.7,0,16.7,0.6c0,0.6-7.4,1.4-16.6,1.6
			C15,45.8,7.5,45.5,7.5,44.9z"/>
		
			<radialGradient id="SVGID_56_" cx="-44.4461" cy="137.6516" r="3.2788" gradientTransform="matrix(5.7048 -0.1746 9.117073e-03 0.2977 276.4156 -4.3375)" gradientUnits="userSpaceOnUse">
			<stop  offset="0" style="stop-color:#010101"/>
			<stop  offset="1" style="stop-color:#010101"/>
		</radialGradient>
		<path class="st131" d="M7.9,44.9c0-0.6,7.2-1.3,16.1-1.6c8.9-0.3,16.2,0,16.2,0.6c0,0.6-7.2,1.3-16.1,1.6
			C15.2,45.8,8,45.5,7.9,44.9z"/>
		
			<radialGradient id="SVGID_57_" cx="-44.1121" cy="143.7155" r="3.2956" gradientTransform="matrix(5.5052 -0.1685 8.819512e-03 0.288 265.6921 -4.4199)" gradientUnits="userSpaceOnUse">
			<stop  offset="0" style="stop-color:#010101"/>
			<stop  offset="1" style="stop-color:#010101"/>
		</radialGradient>
		<path class="st132" d="M8.4,44.9c0-0.6,7-1.3,15.7-1.5c8.7-0.3,15.7,0,15.8,0.6c0,0.6-7,1.3-15.7,1.5C15.5,45.7,8.4,45.5,8.4,44.9
			z"/>
		
			<radialGradient id="SVGID_58_" cx="-43.7528" cy="150.2024" r="3.3137" gradientTransform="matrix(5.3056 -0.1624 8.521951e-03 0.2783 254.9686 -4.5024)" gradientUnits="userSpaceOnUse">
			<stop  offset="0" style="stop-color:#010101"/>
			<stop  offset="1" style="stop-color:#010101"/>
		</radialGradient>
		<path class="st133" d="M8.8,44.9c0-0.6,6.8-1.2,15.2-1.5c8.4-0.3,15.3,0,15.3,0.6c0,0.6-6.8,1.2-15.2,1.5
			C15.7,45.7,8.9,45.4,8.8,44.9z"/>
		
			<radialGradient id="SVGID_59_" cx="-43.3655" cy="157.1581" r="3.3331" gradientTransform="matrix(5.106 -0.1563 8.224390e-03 0.2686 244.245 -4.5848)" gradientUnits="userSpaceOnUse">
			<stop  offset="0" style="stop-color:#010101"/>
			<stop  offset="1" style="stop-color:#010101"/>
		</radialGradient>
		<path class="st134" d="M9.3,44.9c0-0.6,6.6-1.2,14.8-1.5c8.2-0.3,14.8,0,14.8,0.5c0,0.6-6.6,1.2-14.8,1.5
			C16,45.6,9.3,45.4,9.3,44.9z"/>
		
			<radialGradient id="SVGID_60_" cx="-42.9467" cy="164.6355" r="3.3541" gradientTransform="matrix(4.9064 -0.1502 7.926829e-03 0.2588 233.5215 -4.6673)" gradientUnits="userSpaceOnUse">
			<stop  offset="0" style="stop-color:#010101"/>
			<stop  offset="1" style="stop-color:#010101"/>
		</radialGradient>
		<path class="st135" d="M9.8,44.8c0-0.5,6.4-1.2,14.3-1.4c7.9-0.2,14.4,0,14.4,0.5c0,0.5-6.4,1.2-14.3,1.4
			C16.2,45.6,9.8,45.4,9.8,44.8z"/>
		
			<radialGradient id="SVGID_61_" cx="-42.4923" cy="172.6953" r="3.3768" gradientTransform="matrix(4.7068 -0.1441 7.629268e-03 0.2491 222.798 -4.7497)" gradientUnits="userSpaceOnUse">
			<stop  offset="0" style="stop-color:#010101"/>
			<stop  offset="1" style="stop-color:#010101"/>
		</radialGradient>
		<path class="st136" d="M10.2,44.8c0-0.5,6.2-1.1,13.9-1.4c7.7-0.2,13.9,0,13.9,0.5c0,0.5-6.2,1.1-13.9,1.4
			C16.5,45.6,10.2,45.3,10.2,44.8z"/>
		
			<radialGradient id="SVGID_62_" cx="-41.9978" cy="181.4085" r="3.4015" gradientTransform="matrix(4.5072 -0.138 7.331708e-03 0.2394 212.0745 -4.8321)" gradientUnits="userSpaceOnUse">
			<stop  offset="0" style="stop-color:#010101"/>
			<stop  offset="1" style="stop-color:#010101"/>
		</radialGradient>
		<path class="st137" d="M10.7,44.8c0-0.5,6-1.1,13.4-1.3c7.4-0.2,13.5,0,13.5,0.5c0,0.5-6,1.1-13.4,1.3
			C16.7,45.5,10.7,45.3,10.7,44.8z"/>
		
			<radialGradient id="SVGID_63_" cx="-41.4573" cy="190.8579" r="3.4283" gradientTransform="matrix(4.3076 -0.1319 7.034146e-03 0.2297 201.351 -4.9146)" gradientUnits="userSpaceOnUse">
			<stop  offset="0" style="stop-color:#010101"/>
			<stop  offset="1" style="stop-color:#010101"/>
		</radialGradient>
		<path class="st138" d="M11.1,44.8c0-0.5,5.8-1,13-1.3c7.2-0.2,13,0,13,0.5c0,0.5-5.8,1.1-13,1.3C17,45.5,11.1,45.3,11.1,44.8z"/>
		
			<radialGradient id="SVGID_64_" cx="-40.8644" cy="201.1409" r="3.4577" gradientTransform="matrix(4.108 -0.1258 6.736585e-03 0.22 190.6275 -4.997)" gradientUnits="userSpaceOnUse">
			<stop  offset="0" style="stop-color:#010101"/>
			<stop  offset="1" style="stop-color:#010101"/>
		</radialGradient>
		<path class="st139" d="M11.6,44.8c0-0.5,5.6-1,12.5-1.2c6.9-0.2,12.5,0,12.6,0.5c0,0.5-5.6,1-12.5,1.2
			C17.2,45.5,11.6,45.2,11.6,44.8z"/>
		
			<radialGradient id="SVGID_65_" cx="-40.2108" cy="212.3728" r="3.4899" gradientTransform="matrix(3.9084 -0.1196 6.439025e-03 0.2103 179.9039 -5.0795)" gradientUnits="userSpaceOnUse">
			<stop  offset="0" style="stop-color:#010101"/>
			<stop  offset="1" style="stop-color:#010101"/>
		</radialGradient>
		<path class="st140" d="M12,44.8c0-0.4,5.4-1,12-1.2c6.7-0.2,12.1,0,12.1,0.4c0,0.4-5.4,1-12,1.2C17.5,45.4,12.1,45.2,12,44.8z"/>
		
			<radialGradient id="SVGID_66_" cx="-39.487" cy="224.6915" r="3.5255" gradientTransform="matrix(3.7088 -0.1135 6.141463e-03 0.2006 169.1804 -5.1619)" gradientUnits="userSpaceOnUse">
			<stop  offset="0" style="stop-color:#010101"/>
			<stop  offset="1" style="stop-color:#010101"/>
		</radialGradient>
		<path class="st141" d="M12.5,44.8c0-0.4,5.2-0.9,11.6-1.1c6.4-0.2,11.6,0,11.6,0.4c0,0.4-5.2,0.9-11.6,1.1
			C17.7,45.4,12.5,45.2,12.5,44.8z"/>
		
			<radialGradient id="SVGID_67_" cx="-38.6807" cy="238.2625" r="3.565" gradientTransform="matrix(3.5092 -0.1074 5.843902e-03 0.1909 158.4569 -5.2443)" gradientUnits="userSpaceOnUse">
			<stop  offset="0" style="stop-color:#010101"/>
			<stop  offset="1" style="stop-color:#010101"/>
		</radialGradient>
		<path class="st142" d="M13,44.7c0-0.4,5-0.9,11.1-1.1c6.2-0.2,11.2,0,11.2,0.4c0,0.4-5,0.9-11.1,1.1C18,45.3,13,45.2,13,44.7z"/>
		
			<radialGradient id="SVGID_68_" cx="-37.7773" cy="253.2873" r="3.6091" gradientTransform="matrix(3.3096 -0.1013 5.546342e-03 0.1812 147.7334 -5.3268)" gradientUnits="userSpaceOnUse">
			<stop  offset="0" style="stop-color:#010101"/>
			<stop  offset="1" style="stop-color:#010101"/>
		</radialGradient>
		<path class="st143" d="M13.4,44.7c0-0.4,4.8-0.9,10.7-1c5.9-0.2,10.7,0,10.7,0.4c0,0.4-4.8,0.9-10.7,1
			C18.2,45.3,13.4,45.1,13.4,44.7z"/>
		
			<radialGradient id="SVGID_69_" cx="-36.7578" cy="270.0124" r="3.6585" gradientTransform="matrix(3.11 -9.520487e-02 5.248780e-03 0.1715 137.0099 -5.4092)" gradientUnits="userSpaceOnUse">
			<stop  offset="0" style="stop-color:#010101"/>
			<stop  offset="1" style="stop-color:#010101"/>
		</radialGradient>
		<path class="st144" d="M13.9,44.7c0-0.4,4.6-0.8,10.2-1c5.7-0.2,10.3,0,10.3,0.4c0,0.4-4.6,0.8-10.2,1
			C18.5,45.3,13.9,45.1,13.9,44.7z"/>
		
			<radialGradient id="SVGID_70_" cx="-35.5985" cy="288.744" r="3.7145" gradientTransform="matrix(2.9103 -8.909512e-02 4.951220e-03 0.1618 126.2864 -5.4917)" gradientUnits="userSpaceOnUse">
			<stop  offset="0" style="stop-color:#010101"/>
			<stop  offset="1" style="stop-color:#010101"/>
		</radialGradient>
		<path class="st145" d="M14.3,44.7c0-0.4,4.4-0.8,9.8-1c5.4-0.2,9.8,0,9.8,0.4c0,0.4-4.4,0.8-9.8,1C18.7,45.2,14.3,45.1,14.3,44.7z
			"/>
		
			<radialGradient id="SVGID_71_" cx="-34.2684" cy="309.8661" r="3.7783" gradientTransform="matrix(2.7107 -8.298536e-02 4.653659e-03 0.1521 115.5628 -5.5741)" gradientUnits="userSpaceOnUse">
			<stop  offset="0" style="stop-color:#010101"/>
			<stop  offset="1" style="stop-color:#010101"/>
		</radialGradient>
		<path class="st146" d="M14.8,44.7c0-0.3,4.2-0.7,9.3-0.9c5.2-0.2,9.3,0,9.4,0.3c0,0.3-4.2,0.7-9.3,0.9C19,45.2,14.8,45,14.8,44.7z
			"/>
		
			<radialGradient id="SVGID_72_" cx="-32.7269" cy="333.8675" r="3.8517" gradientTransform="matrix(2.5111 -7.687561e-02 4.356097e-03 0.1424 104.8393 -5.6565)" gradientUnits="userSpaceOnUse">
			<stop  offset="0" style="stop-color:#010101"/>
			<stop  offset="1" style="stop-color:#010101"/>
		</radialGradient>
		<path class="st147" d="M15.2,44.7c0-0.3,4-0.7,8.9-0.9c4.9-0.2,8.9,0,8.9,0.3c0,0.3-4,0.7-8.9,0.9C19.2,45.1,15.2,45,15.2,44.7z"
			/>
		
			<radialGradient id="SVGID_73_" cx="-30.9192" cy="361.38" r="3.9372" gradientTransform="matrix(2.3115 -7.076585e-02 4.058537e-03 0.1327 94.1158 -5.739)" gradientUnits="userSpaceOnUse">
			<stop  offset="0" style="stop-color:#010101"/>
			<stop  offset="1" style="stop-color:#010101"/>
		</radialGradient>
		<path class="st148" d="M15.7,44.7c0-0.3,3.8-0.7,8.4-0.8c4.7-0.1,8.4,0,8.4,0.3c0,0.3-3.8,0.7-8.4,0.8
			C19.5,45.1,15.7,45,15.7,44.7z"/>
		
			<radialGradient id="SVGID_74_" cx="-28.7697" cy="393.2349" r="4.0379" gradientTransform="matrix(2.1119 -6.465610e-02 3.760976e-03 0.123 83.3923 -5.8214)" gradientUnits="userSpaceOnUse">
			<stop  offset="0" style="stop-color:#010101"/>
			<stop  offset="1" style="stop-color:#010101"/>
		</radialGradient>
		<path class="st149" d="M16.1,44.6c0-0.3,3.5-0.6,7.9-0.8c4.4-0.1,8,0,8,0.3c0,0.3-3.5,0.6-7.9,0.8C19.7,45.1,16.2,44.9,16.1,44.6z
			"/>
		
			<radialGradient id="SVGID_75_" cx="-26.1714" cy="430.5483" r="4.1585" gradientTransform="matrix(1.9123 -5.854634e-02 3.463415e-03 0.1133 72.6688 -5.9039)" gradientUnits="userSpaceOnUse">
			<stop  offset="0" style="stop-color:#010101"/>
			<stop  offset="1" style="stop-color:#010101"/>
		</radialGradient>
		<path class="st150" d="M16.6,44.6c0-0.3,3.3-0.6,7.5-0.7c4.1-0.1,7.5,0,7.5,0.3c0,0.3-3.3,0.6-7.5,0.7C20,45,16.6,44.9,16.6,44.6z
			"/>
		
			<radialGradient id="SVGID_76_" cx="-22.9675" cy="474.8547" r="4.3056" gradientTransform="matrix(1.7127 -5.243659e-02 3.165854e-03 0.1036 61.9453 -5.9863)" gradientUnits="userSpaceOnUse">
			<stop  offset="0" style="stop-color:#010101"/>
			<stop  offset="1" style="stop-color:#010101"/>
		</radialGradient>
		<path class="st151" d="M17.1,44.6c0-0.3,3.1-0.6,7-0.7c3.9-0.1,7.1,0,7.1,0.2c0,0.3-3.1,0.6-7,0.7C20.2,45,17.1,44.9,17.1,44.6z"
			/>
		
			<radialGradient id="SVGID_77_" cx="-18.9182" cy="528.3232" r="4.4891" gradientTransform="matrix(1.5131 -4.632683e-02 2.868293e-03 9.386341e-02 51.2217 -6.0687)" gradientUnits="userSpaceOnUse">
			<stop  offset="0" style="stop-color:#010101"/>
			<stop  offset="1" style="stop-color:#010101"/>
		</radialGradient>
		<path class="st152" d="M17.5,44.6c0-0.2,2.9-0.5,6.6-0.6c3.6-0.1,6.6,0,6.6,0.2c0,0.2-2.9,0.5-6.6,0.6
			C20.5,44.9,17.5,44.8,17.5,44.6z"/>
		
			<radialGradient id="SVGID_78_" cx="-13.6381" cy="594.1237" r="4.7248" gradientTransform="matrix(1.3135 -4.021707e-02 2.570732e-03 8.415854e-02 40.4982 -6.1512)" gradientUnits="userSpaceOnUse">
			<stop  offset="0" style="stop-color:#010101"/>
			<stop  offset="1" style="stop-color:#010101"/>
		</radialGradient>
		<path class="st153" d="M18,44.6c0-0.2,2.7-0.5,6.1-0.6c3.4-0.1,6.1,0,6.2,0.2c0,0.2-2.7,0.5-6.1,0.6C20.7,44.9,18,44.8,18,44.6z"
			/>
		
			<radialGradient id="SVGID_79_" cx="-6.4655" cy="677.0783" r="5.0395" gradientTransform="matrix(1.1139 -3.410732e-02 2.273171e-03 7.445366e-02 29.7747 -6.2336)" gradientUnits="userSpaceOnUse">
			<stop  offset="0" style="stop-color:#010101"/>
			<stop  offset="1" style="stop-color:#010101"/>
		</radialGradient>
		<path class="st154" d="M18.4,44.6c0-0.2,2.5-0.4,5.7-0.5c3.1-0.1,5.7,0,5.7,0.2c0,0.2-2.5,0.4-5.7,0.5
			C21,44.9,18.4,44.8,18.4,44.6z"/>
		
			<radialGradient id="SVGID_80_" cx="3.8393" cy="784.9011" r="5.4824" gradientTransform="matrix(0.9143 -2.799756e-02 1.975610e-03 6.474878e-02 19.0512 -6.3161)" gradientUnits="userSpaceOnUse">
			<stop  offset="0" style="stop-color:#010101"/>
			<stop  offset="1" style="stop-color:#010101"/>
		</radialGradient>
		<path class="st155" d="M18.9,44.6c0-0.2,2.3-0.4,5.2-0.5c2.9-0.1,5.2,0,5.2,0.2c0,0.2-2.3,0.4-5.2,0.5
			C21.2,44.8,18.9,44.7,18.9,44.6z"/>
		
			<radialGradient id="SVGID_81_" cx="19.9009" cy="930.7461" r="6.157" gradientTransform="matrix(0.7147 -2.188781e-02 1.678049e-03 5.504390e-02 8.3277 -6.3985)" gradientUnits="userSpaceOnUse">
			<stop  offset="0" style="stop-color:#010101"/>
			<stop  offset="1" style="stop-color:#010101"/>
		</radialGradient>
		<path class="st156" d="M19.3,44.5c0-0.2,2.1-0.4,4.8-0.5c2.6-0.1,4.8,0,4.8,0.2c0,0.2-2.1,0.4-4.8,0.5
			C21.5,44.8,19.3,44.7,19.3,44.5z"/>
		
			<radialGradient id="SVGID_82_" cx="48.4128" cy="1139.0317" r="7.3253" gradientTransform="matrix(0.5151 -1.577805e-02 1.380488e-03 4.533903e-02 -2.3958 -6.4809)" gradientUnits="userSpaceOnUse">
			<stop  offset="0" style="stop-color:#010101"/>
			<stop  offset="1" style="stop-color:#010101"/>
		</radialGradient>
		<path class="st157" d="M19.8,44.5c0-0.2,1.9-0.3,4.3-0.4c2.4-0.1,4.3,0,4.3,0.1c0,0.2-1.9,0.3-4.3,0.4
			C21.7,44.7,19.8,44.7,19.8,44.5z"/>
		
			<radialGradient id="SVGID_83_" cx="113.011" cy="1460.7833" r="9.9211" gradientTransform="matrix(0.3155 -9.668292e-03 1.082927e-03 3.563415e-02 -13.1194 -6.5634)" gradientUnits="userSpaceOnUse">
			<stop  offset="0" style="stop-color:#010101"/>
			<stop  offset="1" style="stop-color:#010101"/>
		</radialGradient>
		<path class="st158" d="M20.3,44.5c0-0.1,1.7-0.3,3.9-0.4c2.1-0.1,3.9,0,3.9,0.1c0,0.1-1.7,0.3-3.9,0.4
			C22,44.7,20.3,44.7,20.3,44.5z"/>
		
			<radialGradient id="SVGID_84_" cx="400.243" cy="2023.4987" r="21.5668" gradientTransform="matrix(0.1158 -3.558537e-03 7.853658e-04 2.592927e-02 -23.8429 -6.6458)" gradientUnits="userSpaceOnUse">
			<stop  offset="0" style="stop-color:#010101"/>
			<stop  offset="1" style="stop-color:#010101"/>
		</radialGradient>
		<path class="st159" d="M20.7,44.5c0-0.1,1.5-0.3,3.4-0.3c1.9-0.1,3.4,0,3.4,0.1c0,0.1-1.5,0.3-3.4,0.3
			C22.2,44.7,20.7,44.6,20.7,44.5z"/>
		
			<radialGradient id="SVGID_85_" cx="-681.5502" cy="3258.3513" r="26.1038" gradientTransform="matrix(-8.376342e-02 2.551220e-03 4.878049e-04 1.622439e-02 -34.5664 -6.7283)" gradientUnits="userSpaceOnUse">
			<stop  offset="0" style="stop-color:#010101"/>
			<stop  offset="1" style="stop-color:#010101"/>
		</radialGradient>
		<path class="st160" d="M21.2,44.5c0-0.1,1.3-0.2,2.9-0.3c1.6-0.1,2.9,0,3,0.1c0,0.1-1.3,0.2-2.9,0.3
			C22.5,44.6,21.2,44.6,21.2,44.5z"/>
		
			<radialGradient id="SVGID_86_" cx="-239.4288" cy="8172.71" r="17.5025" gradientTransform="matrix(-0.2834 8.660976e-03 1.902439e-04 6.519512e-03 -45.2899 -6.8107)" gradientUnits="userSpaceOnUse">
			<stop  offset="0" style="stop-color:#010101"/>
			<stop  offset="1" style="stop-color:#010101"/>
		</radialGradient>
		<path class="st161" d="M21.6,44.5c0-0.1,1.1-0.2,2.5-0.2c1.4,0,2.5,0,2.5,0.1c0,0.1-1.1,0.2-2.5,0.2
			C22.7,44.6,21.6,44.6,21.6,44.5z"/>
		
			<radialGradient id="SVGID_87_" cx="-162.1538" cy="-16853.9297" r="26.6894" gradientTransform="matrix(-0.483 1.477073e-02 -1.073171e-04 -3.185366e-03 -56.0134 -6.8931)" gradientUnits="userSpaceOnUse">
			<stop  offset="0" style="stop-color:#010101"/>
			<stop  offset="1" style="stop-color:#010101"/>
		</radialGradient>
		<path class="st162" d="M22.1,44.5c0-0.1,0.9-0.1,2-0.2c1.1,0,2,0,2,0.1c0,0.1-0.9,0.1-2,0.2C23,44.6,22.1,44.5,22.1,44.5z"/>
		
			<radialGradient id="SVGID_88_" cx="-130.6059" cy="-4196.999" r="5.1024" gradientTransform="matrix(-0.6826 2.088049e-02 -4.048781e-04 -1.289024e-02 -66.7369 -6.9756)" gradientUnits="userSpaceOnUse">
			<stop  offset="0" style="stop-color:#010101"/>
			<stop  offset="1" style="stop-color:#010101"/>
		</radialGradient>
		<path class="st163" d="M22.5,44.4c0,0,0.7-0.1,1.6-0.1c0.9,0,1.6,0,1.6,0c0,0-0.7,0.1-1.6,0.1C23.2,44.5,22.5,44.5,22.5,44.4z"/>
		
			<radialGradient id="SVGID_89_" cx="-113.2154" cy="-2412.5276" r="1.9902" gradientTransform="matrix(-0.8822 2.699024e-02 -7.024391e-04 -2.259512e-02 -77.4604 -7.058)" gradientUnits="userSpaceOnUse">
			<stop  offset="0" style="stop-color:#010101"/>
			<stop  offset="1" style="stop-color:#010101"/>
		</radialGradient>
		<path class="st164" d="M23,44.4c0,0,0.5-0.1,1.1-0.1c0.6,0,1.1,0,1.1,0c0,0-0.5,0.1-1.1,0.1C23.5,44.5,23,44.5,23,44.4z"/>
		
			<radialGradient id="SVGID_90_" cx="-102.233" cy="-1700.3706" r="0.7053" gradientTransform="matrix(-1.0818 3.310000e-02 -1.000000e-03 -3.230000e-02 -88.184 -7.1405)" gradientUnits="userSpaceOnUse">
			<stop  offset="0" style="stop-color:#010101"/>
			<stop  offset="1" style="stop-color:#010101"/>
		</radialGradient>
		<path class="st165" d="M23.4,44.4c0,0,0.3,0,0.7,0c0.4,0,0.7,0,0.7,0c0,0-0.3,0-0.7,0C23.7,44.4,23.4,44.4,23.4,44.4z"/>
	</g>
	
		<linearGradient id="SVGID_91_" gradientUnits="userSpaceOnUse" x1="2.6097" y1="21.9064" x2="45.4822" y2="21.9064" gradientTransform="matrix(0.9995 -3.060000e-02 3.060000e-02 0.9995 -2.5061 0.5397)">
		<stop  offset="0" style="stop-color:#025A84"/>
		<stop  offset="1" style="stop-color:#003A54"/>
	</linearGradient>
	<path class="st166" d="M43.6,21C43.3,9.1,33.3-0.2,21.4,0.1L0.2,0.8c4.6,6.5,2.4,14.1,1.1,19.4c-0.7,3-0.6,6.1,0.5,9
		c3.1,8.5,11.4,14.5,20.9,14.2C34.6,42.9,44,33,43.6,21z"/>
	<g class="st167">
		<path class="st45" d="M24.5,41.4c-10.2,0.3-18.8-7.7-19.1-18c-0.3-10.2,7.7-18.8,18-19.1c10.2-0.3,18.8,7.7,19.1,18
			C42.8,32.5,34.7,41.1,24.5,41.4z"/>
		<path class="st46" d="M24.5,41.4c-10.2,0.3-18.8-7.7-19.1-18c-0.3-10.2,7.7-18.8,18-19.1c10.2-0.3,18.8,7.7,19.1,18
			C42.8,32.5,34.7,41.1,24.5,41.4z"/>
		<path class="st47" d="M24.5,41.4C14.2,41.7,5.7,33.6,5.4,23.4C5.1,13.2,13.1,4.7,23.3,4.4C33.5,4,42.1,12.1,42.4,22.3
			C42.7,32.5,34.7,41.1,24.5,41.4z"/>
		<path class="st48" d="M24.4,41.4C14.2,41.7,5.7,33.6,5.4,23.4C5,13.2,13.1,4.7,23.3,4.4C33.5,4,42.1,12.1,42.4,22.3
			C42.7,32.5,34.6,41,24.4,41.4z"/>
		<path class="st49" d="M24.4,41.3C14.2,41.6,5.7,33.6,5.3,23.4C5,13.2,13.1,4.7,23.3,4.4C33.5,4,42,12.1,42.3,22.3
			C42.6,32.5,34.6,41,24.4,41.3z"/>
		<path class="st50" d="M24.4,41.3c-10.2,0.3-18.7-7.7-19-17.9C5,13.2,13.1,4.7,23.2,4.4C33.4,4,42,12.1,42.3,22.3
			C42.6,32.5,34.6,41,24.4,41.3z"/>
		<path class="st51" d="M24.4,41.3c-10.2,0.3-18.7-7.7-19-17.9C5,13.2,13,4.7,23.2,4.4c10.2-0.3,18.7,7.7,19,17.9
			C42.6,32.4,34.5,41,24.4,41.3z"/>
		<path class="st52" d="M24.3,41.3c-10.2,0.3-18.7-7.7-19-17.9C5,13.2,13,4.7,23.2,4.4c10.2-0.3,18.7,7.7,19,17.9
			C42.5,32.4,34.5,41,24.3,41.3z"/>
		<path class="st53" d="M24.3,41.3c-10.2,0.3-18.7-7.7-19-17.9C5,13.2,13,4.7,23.2,4.3c10.2-0.3,18.7,7.7,19,17.9
			C42.5,32.4,34.5,40.9,24.3,41.3z"/>
		<path class="st54" d="M24.3,41.2c-10.2,0.3-18.7-7.7-19-17.9C5,13.2,13,4.7,23.1,4.3c10.2-0.3,18.7,7.7,19,17.9
			C42.5,32.4,34.4,40.9,24.3,41.2z"/>
		<path class="st55" d="M24.3,41.2c-10.2,0.3-18.7-7.7-19-17.9C4.9,13.2,13,4.7,23.1,4.3c10.2-0.3,18.7,7.7,19,17.9
			C42.4,32.4,34.4,40.9,24.3,41.2z"/>
		<path class="st56" d="M24.2,41.2c-10.2,0.3-18.7-7.7-19-17.9c-0.3-10.2,7.7-18.7,17.9-19C33.3,4,41.8,12,42.1,22.2
			C42.4,32.4,34.4,40.9,24.2,41.2z"/>
		<path class="st57" d="M24.2,41.2C14,41.5,5.5,33.5,5.2,23.3c-0.3-10.2,7.7-18.7,17.8-19C33.2,4,41.7,12,42,22.2
			C42.4,32.3,34.3,40.9,24.2,41.2z"/>
		<path class="st58" d="M24.2,41.1C14,41.5,5.5,33.5,5.2,23.3C4.9,13.2,12.9,4.7,23,4.3C33.2,4,41.7,12,42,22.2
			C42.3,32.3,34.3,40.8,24.2,41.1z"/>
		<path class="st59" d="M24.1,41.1C14,41.4,5.5,33.4,5.2,23.3C4.9,13.2,12.9,4.7,23,4.3C33.2,4,41.7,12,42,22.2
			C42.3,32.3,34.3,40.8,24.1,41.1z"/>
		<path class="st60" d="M24.1,41.1C14,41.4,5.5,33.4,5.2,23.3C4.9,13.2,12.9,4.7,23,4.3C33.1,4,41.6,12,41.9,22.2
			C42.2,32.3,34.3,40.8,24.1,41.1z"/>
		<path class="st61" d="M24.1,41.1C14,41.4,5.5,33.4,5.2,23.3C4.9,13.1,12.8,4.7,23,4.3C33.1,4,41.6,12,41.9,22.2
			C42.2,32.3,34.2,40.8,24.1,41.1z"/>
		<path class="st62" d="M24.1,41.1C13.9,41.4,5.5,33.4,5.2,23.3C4.8,13.1,12.8,4.7,22.9,4.3C33.1,4,41.6,12,41.9,22.1
			C42.2,32.3,34.2,40.7,24.1,41.1z"/>
		<path class="st63" d="M24,41C13.9,41.3,5.4,33.4,5.1,23.3C4.8,13.1,12.8,4.7,22.9,4.3C33,4,41.5,12,41.8,22.1
			C42.1,32.2,34.2,40.7,24,41z"/>
		<path class="st64" d="M24,41C13.9,41.3,5.4,33.4,5.1,23.2C4.8,13.1,12.8,4.7,22.9,4.3C33,4,41.5,12,41.8,22.1
			C42.1,32.2,34.1,40.7,24,41z"/>
		<path class="st65" d="M24,41C13.9,41.3,5.4,33.3,5.1,23.2C4.8,13.1,12.8,4.7,22.9,4.3C33,4,41.4,12,41.8,22.1
			C42.1,32.2,34.1,40.7,24,41z"/>
		<path class="st66" d="M24,41C13.9,41.3,5.4,33.3,5.1,23.2C4.8,13.1,12.7,4.7,22.8,4.3C32.9,4,41.4,12,41.7,22.1
			C42,32.2,34.1,40.7,24,41z"/>
		<path class="st67" d="M23.9,40.9C13.8,41.3,5.4,33.3,5.1,23.2C4.8,13.1,12.7,4.7,22.8,4.3C32.9,4,41.4,12,41.7,22.1
			C42,32.2,34,40.6,23.9,40.9z"/>
		<path class="st68" d="M23.9,40.9C13.8,41.2,5.4,33.3,5.1,23.2C4.8,13.1,12.7,4.7,22.8,4.3C32.9,4,41.3,12,41.6,22.1
			C42,32.2,34,40.6,23.9,40.9z"/>
		<path class="st69" d="M23.9,40.9C13.8,41.2,5.4,33.3,5,23.2C4.7,13.1,12.7,4.7,22.8,4.3C32.8,4,41.3,12,41.6,22.1
			C41.9,32.1,34,40.6,23.9,40.9z"/>
		<path class="st70" d="M23.9,40.9C13.8,41.2,5.3,33.2,5,23.2C4.7,13.1,12.7,4.7,22.7,4.3C32.8,4,41.3,12,41.6,22.1
			C41.9,32.1,33.9,40.6,23.9,40.9z"/>
		<path class="st71" d="M23.8,40.9C13.8,41.2,5.3,33.2,5,23.2C4.7,13.1,12.6,4.7,22.7,4.3C32.8,4,41.2,12,41.5,22
			C41.8,32.1,33.9,40.6,23.8,40.9z"/>
		<path class="st72" d="M23.8,40.8C13.7,41.2,5.3,33.2,5,23.2C4.7,13.1,12.6,4.7,22.7,4.3C32.8,4,41.2,12,41.5,22
			C41.8,32.1,33.9,40.5,23.8,40.8z"/>
		<path class="st73" d="M23.8,40.8C13.7,41.1,5.3,33.2,5,23.1C4.7,13.1,12.6,4.7,22.7,4.3C32.7,4,41.2,12,41.5,22
			C41.8,32.1,33.8,40.5,23.8,40.8z"/>
		<path class="st74" d="M23.8,40.8C13.7,41.1,5.3,33.2,5,23.1C4.7,13.1,12.6,4.7,22.6,4.3C32.7,4,41.1,12,41.4,22
			C41.7,32.1,33.8,40.5,23.8,40.8z"/>
		<path class="st75" d="M23.7,40.8C13.7,41.1,5.3,33.2,5,23.1c-0.3-10,7.6-18.5,17.7-18.8C32.7,4,41.1,12,41.4,22
			C41.7,32,33.8,40.5,23.7,40.8z"/>
		<path class="st76" d="M23.7,40.8c-10,0.3-18.5-7.6-18.8-17.6c-0.3-10,7.6-18.5,17.6-18.8C32.6,4,41,12,41.4,22
			C41.7,32,33.7,40.4,23.7,40.8z"/>
		<path class="st77" d="M23.7,40.7C13.6,41,5.2,33.1,4.9,23.1c-0.3-10,7.6-18.4,17.6-18.8C32.6,4,41,11.9,41.3,22
			C41.6,32,33.7,40.4,23.7,40.7z"/>
		<path class="st78" d="M23.7,40.7C13.6,41,5.2,33.1,4.9,23.1c-0.3-10,7.6-18.4,17.6-18.7C32.6,4,41,11.9,41.3,22
			C41.6,32,33.7,40.4,23.7,40.7z"/>
		<path class="st79" d="M23.6,40.7C13.6,41,5.2,33.1,4.9,23.1c-0.3-10,7.6-18.4,17.6-18.7C32.5,4,40.9,11.9,41.3,22
			C41.6,32,33.7,40.4,23.6,40.7z"/>
		<path class="st80" d="M23.6,40.7C13.6,41,5.2,33.1,4.9,23.1C4.6,13,12.5,4.6,22.5,4.3c10-0.3,18.4,7.6,18.7,17.6
			C41.5,32,33.6,40.4,23.6,40.7z"/>
		<path class="st81" d="M23.6,40.6C13.6,41,5.2,33.1,4.9,23.1C4.6,13,12.5,4.6,22.5,4.3c10-0.3,18.4,7.6,18.7,17.6
			C41.5,31.9,33.6,40.3,23.6,40.6z"/>
		<path class="st82" d="M23.6,40.6C13.5,40.9,5.2,33,4.9,23C4.5,13,12.4,4.6,22.4,4.3c10-0.3,18.4,7.6,18.7,17.6
			C41.4,31.9,33.6,40.3,23.6,40.6z"/>
		<path class="st83" d="M23.5,40.6C13.5,40.9,5.1,33,4.8,23C4.5,13,12.4,4.6,22.4,4.3c10-0.3,18.4,7.6,18.7,17.6
			C41.4,31.9,33.5,40.3,23.5,40.6z"/>
		<path class="st84" d="M23.5,40.6C13.5,40.9,5.1,33,4.8,23C4.5,13,12.4,4.6,22.4,4.3c10-0.3,18.4,7.6,18.7,17.6
			C41.4,31.9,33.5,40.3,23.5,40.6z"/>
		<path class="st85" d="M23.5,40.6C13.5,40.9,5.1,33,4.8,23C4.5,13,12.4,4.6,22.4,4.3C32.4,4,40.7,11.9,41,21.9
			C41.3,31.9,33.5,40.3,23.5,40.6z"/>
		<path class="st86" d="M23.4,40.5C13.5,40.8,5.1,33,4.8,23C4.5,13,12.4,4.6,22.3,4.3C32.3,4,40.7,11.9,41,21.9
			C41.3,31.9,33.4,40.2,23.4,40.5z"/>
		<path class="st87" d="M23.4,40.5C13.4,40.8,5.1,33,4.8,23C4.5,13,12.3,4.6,22.3,4.3C32.3,4,40.7,11.9,41,21.9
			C41.3,31.9,33.4,40.2,23.4,40.5z"/>
		<path class="st88" d="M23.4,40.5C13.4,40.8,5.1,32.9,4.8,23C4.5,13,12.3,4.6,22.3,4.3c10-0.3,18.3,7.6,18.6,17.5
			C41.2,31.8,33.4,40.2,23.4,40.5z"/>
		<path class="st89" d="M23.4,40.5C13.4,40.8,5.1,32.9,4.7,23C4.4,13,12.3,4.6,22.3,4.3c10-0.3,18.3,7.6,18.6,17.5
			C41.2,31.8,33.3,40.2,23.4,40.5z"/>
		<path class="st90" d="M23.3,40.5C13.4,40.8,5,32.9,4.7,22.9C4.4,13,12.3,4.6,22.2,4.3c10-0.3,18.3,7.5,18.6,17.5
			C41.2,31.8,33.3,40.2,23.3,40.5z"/>
		<path class="st91" d="M23.3,40.4C13.4,40.7,5,32.9,4.7,22.9C4.4,13,12.3,4.6,22.2,4.3c10-0.3,18.3,7.5,18.6,17.5
			C41.1,31.8,33.3,40.1,23.3,40.4z"/>
		<path class="st92" d="M23.3,40.4C13.3,40.7,5,32.9,4.7,22.9C4.4,13,12.2,4.6,22.2,4.3c9.9-0.3,18.3,7.5,18.6,17.5
			C41.1,31.8,33.2,40.1,23.3,40.4z"/>
		<path class="st93" d="M23.3,40.4C13.3,40.7,5,32.9,4.7,22.9C4.4,13,12.2,4.6,22.2,4.3c9.9-0.3,18.3,7.5,18.6,17.5
			C41,31.8,33.2,40.1,23.3,40.4z"/>
		<path class="st94" d="M23.2,40.4C13.3,40.7,5,32.8,4.7,22.9C4.4,13,12.2,4.6,22.1,4.3c9.9-0.3,18.3,7.5,18.6,17.5
			C41,31.7,33.2,40.1,23.2,40.4z"/>
		<path class="st95" d="M23.2,40.3C13.3,40.7,5,32.8,4.7,22.9C4.4,13,12.2,4.6,22.1,4.3C32,4,40.4,11.9,40.7,21.8
			C41,31.7,33.1,40,23.2,40.3z"/>
		<path class="st96" d="M23.2,40.3c-9.9,0.3-18.2-7.5-18.5-17.4C4.3,13,12.2,4.6,22.1,4.3C32,4,40.3,11.9,40.6,21.8
			C40.9,31.7,33.1,40,23.2,40.3z"/>
		<path class="st97" d="M23.2,40.3c-9.9,0.3-18.2-7.5-18.5-17.4C4.3,13,12.1,4.6,22.1,4.3C32,4,40.3,11.9,40.6,21.8
			C40.9,31.7,33.1,40,23.2,40.3z"/>
		<path class="st98" d="M23.1,40.3c-9.9,0.3-18.2-7.5-18.5-17.4C4.3,12.9,12.1,4.6,22,4.3c9.9-0.3,18.2,7.5,18.5,17.4
			C40.9,31.7,33.1,40,23.1,40.3z"/>
		<path class="st99" d="M23.1,40.3c-9.9,0.3-18.2-7.5-18.5-17.4C4.3,12.9,12.1,4.6,22,4.3c9.9-0.3,18.2,7.5,18.5,17.4
			C40.8,31.7,33,40,23.1,40.3z"/>
		<path class="st100" d="M23.1,40.2c-9.9,0.3-18.2-7.5-18.5-17.4C4.3,12.9,12.1,4.6,22,4.3c9.9-0.3,18.2,7.5,18.5,17.4
			C40.8,31.6,33,39.9,23.1,40.2z"/>
		<path class="st101" d="M23.1,40.2c-9.9,0.3-18.2-7.5-18.5-17.4C4.3,12.9,12.1,4.6,22,4.3c9.9-0.3,18.2,7.5,18.5,17.4
			C40.8,31.6,33,39.9,23.1,40.2z"/>
		<path class="st102" d="M23,40.2c-9.9,0.3-18.2-7.5-18.5-17.4C4.3,12.9,12,4.6,21.9,4.3c9.9-0.3,18.2,7.5,18.5,17.4
			C40.7,31.6,32.9,39.9,23,40.2z"/>
		<path class="st103" d="M23,40.2c-9.9,0.3-18.2-7.5-18.5-17.4C4.2,12.9,12,4.6,21.9,4.3c9.9-0.3,18.2,7.5,18.5,17.4
			C40.7,31.6,32.9,39.9,23,40.2z"/>
		<path class="st104" d="M23,40.2c-9.9,0.3-18.2-7.5-18.5-17.4C4.2,12.9,12,4.6,21.9,4.3C31.8,4,40,11.8,40.3,21.7
			C40.6,31.6,32.9,39.9,23,40.2z"/>
		<path class="st105" d="M23,40.1c-9.9,0.3-18.1-7.5-18.4-17.4C4.2,12.9,12,4.6,21.9,4.3C31.7,4,40,11.8,40.3,21.7
			C40.6,31.6,32.8,39.8,23,40.1z"/>
		<path class="st106" d="M22.9,40.1c-9.9,0.3-18.1-7.5-18.4-17.3C4.2,12.9,12,4.6,21.8,4.3C31.7,4,40,11.8,40.3,21.7
			C40.6,31.5,32.8,39.8,22.9,40.1z"/>
		<path class="st107" d="M22.9,40.1C13,40.4,4.8,32.6,4.5,22.8C4.2,12.9,12,4.6,21.8,4.3c9.9-0.3,18.1,7.5,18.4,17.3
			C40.5,31.5,32.8,39.8,22.9,40.1z"/>
		<path class="st108" d="M22.9,40.1C13,40.4,4.8,32.6,4.5,22.7C4.2,12.9,11.9,4.6,21.8,4.3c9.9-0.3,18.1,7.5,18.4,17.3
			C40.5,31.5,32.7,39.8,22.9,40.1z"/>
		<path class="st109" d="M22.9,40C13,40.4,4.7,32.6,4.4,22.7C4.1,12.9,11.9,4.6,21.8,4.3c9.8-0.3,18.1,7.5,18.4,17.3
			C40.5,31.5,32.7,39.7,22.9,40z"/>
		<path class="st110" d="M22.8,40C13,40.3,4.7,32.6,4.4,22.7C4.1,12.9,11.9,4.6,21.7,4.3c9.8-0.3,18.1,7.5,18.4,17.3
			C40.4,31.5,32.7,39.7,22.8,40z"/>
		<path class="st111" d="M22.8,40C13,40.3,4.7,32.5,4.4,22.7C4.1,12.9,11.9,4.6,21.7,4.3c9.8-0.3,18.1,7.5,18.4,17.3
			C40.4,31.5,32.6,39.7,22.8,40z"/>
		<path class="st112" d="M22.8,40c-9.8,0.3-18.1-7.5-18.4-17.3C4.1,12.9,11.9,4.6,21.7,4.3c9.8-0.3,18.1,7.5,18.4,17.3
			C40.4,31.4,32.6,39.7,22.8,40z"/>
		<path class="st113" d="M22.8,40c-9.8,0.3-18.1-7.4-18.4-17.3C4.1,12.9,11.8,4.6,21.7,4.3C31.5,4,39.7,11.8,40,21.6
			C40.3,31.4,32.6,39.7,22.8,40z"/>
		<path class="st114" d="M22.7,39.9c-9.8,0.3-18.1-7.4-18.4-17.3C4.1,12.9,11.8,4.6,21.6,4.3C31.5,4,39.7,11.8,40,21.6
			C40.3,31.4,32.5,39.6,22.7,39.9z"/>
		<path class="st115" d="M22.7,39.9c-9.8,0.3-18-7.4-18.3-17.3c-0.3-9.8,7.4-18,17.3-18.3c9.8-0.3,18,7.4,18.3,17.3
			C40.2,31.4,32.5,39.6,22.7,39.9z"/>
		<path class="st116" d="M22.7,39.9c-9.8,0.3-18-7.4-18.3-17.2C4,12.8,11.8,4.6,21.6,4.3c9.8-0.3,18,7.4,18.3,17.2
			C40.2,31.4,32.5,39.6,22.7,39.9z"/>
	</g>
	
		<linearGradient id="SVGID_92_" gradientUnits="userSpaceOnUse" x1="11.4901" y1="9.8438" x2="36.6435" y2="34.9972" gradientTransform="matrix(0.9995 -3.060000e-02 3.060000e-02 0.9995 -2.5061 0.5397)">
		<stop  offset="0" style="stop-color:#C3C4C3"/>
		<stop  offset="0.215" style="stop-color:#D7D7D6"/>
		<stop  offset="0.4828" style="stop-color:#EBEAE9"/>
		<stop  offset="0.7466" style="stop-color:#F8F8F7"/>
		<stop  offset="1" style="stop-color:#FFFFFF"/>
	</linearGradient>
	<path class="st168" d="M22.7,39.9c-9.8,0.3-18-7.4-18.3-17.2C4,12.8,11.8,4.6,21.6,4.3c9.8-0.3,18,7.4,18.3,17.2
		C40.2,31.4,32.5,39.6,22.7,39.9z"/>
	
		<linearGradient id="SVGID_93_" gradientUnits="userSpaceOnUse" x1="19.2316" y1="21.9052" x2="28.6732" y2="21.9052" gradientTransform="matrix(0.9995 -3.060000e-02 3.060000e-02 0.9995 -2.5061 0.5397)">
		<stop  offset="0" style="stop-color:#003A54"/>
		<stop  offset="1" style="stop-color:#025A84"/>
	</linearGradient>
	<path class="st169" d="M26.5,21.6l-2.8,0.1l0.3,10.1l-4.2,0.1l-0.3-10.1l-2,0.1l-0.1-3.6l2-0.1l-0.1-2.3c-0.1-1.7,0.7-4.3,4.1-4.4
		l3.1-0.1l0.1,3.5L24.3,15c-0.4,0-0.9,0.2-0.9,1l0.1,2.1l3.2-0.1L26.5,21.6z M26.5,21.6"/>
</g>
<g class="st122">
	<g class="st123">
		
			<radialGradient id="SVGID_94_" cx="-46.482" cy="104.6346" r="3.1871" gradientTransform="matrix(7.1054 0 0 0.3658 353.4096 6.1333)" gradientUnits="userSpaceOnUse">
			<stop  offset="0" style="stop-color:#010101"/>
			<stop  offset="1" style="stop-color:#010101"/>
		</radialGradient>
		<path class="st170" d="M42.5,44.4c0,0.7-8.7,1.3-19.4,1.3S3.8,45.1,3.8,44.4c0-0.7,8.7-1.3,19.4-1.3S42.5,43.7,42.5,44.4z"/>
		
			<radialGradient id="SVGID_95_" cx="-46.2758" cy="108.6088" r="3.1981" gradientTransform="matrix(6.9057 0 0 0.3561 342.7035 5.7341)" gradientUnits="userSpaceOnUse">
			<stop  offset="0" style="stop-color:#010101"/>
			<stop  offset="1" style="stop-color:#010101"/>
		</radialGradient>
		<path class="st171" d="M4.2,44.4c0-0.7,8.5-1.3,18.9-1.3c10.5,0,18.9,0.6,18.9,1.3c0,0.7-8.5,1.3-18.9,1.3
			C12.7,45.7,4.2,45.1,4.2,44.4z"/>
		
			<radialGradient id="SVGID_96_" cx="-46.0574" cy="112.8057" r="3.2097" gradientTransform="matrix(6.706 0 0 0.3464 331.9974 5.3349)" gradientUnits="userSpaceOnUse">
			<stop  offset="0" style="stop-color:#010101"/>
			<stop  offset="1" style="stop-color:#010101"/>
		</radialGradient>
		<path class="st172" d="M4.7,44.4c0-0.7,8.3-1.2,18.5-1.2c10.2,0,18.5,0.6,18.5,1.2c0,0.7-8.3,1.3-18.5,1.3
			C12.9,45.7,4.7,45.1,4.7,44.4z"/>
		
			<radialGradient id="SVGID_97_" cx="-45.8255" cy="117.2447" r="3.2219" gradientTransform="matrix(6.5063 0 0 0.3367 321.2914 4.9357)" gradientUnits="userSpaceOnUse">
			<stop  offset="0" style="stop-color:#010101"/>
			<stop  offset="1" style="stop-color:#010101"/>
		</radialGradient>
		<path class="st173" d="M5.1,44.4c0-0.7,8.1-1.2,18-1.2c9.9,0,18,0.5,18,1.2c0,0.7-8.1,1.2-18,1.2C13.2,45.6,5.1,45.1,5.1,44.4z"/>
		
			<radialGradient id="SVGID_98_" cx="-45.579" cy="121.9474" r="3.235" gradientTransform="matrix(6.3066 0 0 0.327 310.5853 4.5365)" gradientUnits="userSpaceOnUse">
			<stop  offset="0" style="stop-color:#010101"/>
			<stop  offset="1" style="stop-color:#010101"/>
		</radialGradient>
		<path class="st174" d="M5.6,44.4c0-0.7,7.9-1.2,17.6-1.2c9.7,0,17.6,0.5,17.6,1.2c0,0.7-7.9,1.2-17.6,1.2
			C13.4,45.6,5.6,45.1,5.6,44.4z"/>
		
			<radialGradient id="SVGID_99_" cx="-45.3164" cy="126.938" r="3.2488" gradientTransform="matrix(6.1069 0 0 0.3173 299.8792 4.1373)" gradientUnits="userSpaceOnUse">
			<stop  offset="0" style="stop-color:#010101"/>
			<stop  offset="1" style="stop-color:#010101"/>
		</radialGradient>
		<path class="st175" d="M6,44.4c0-0.6,7.7-1.2,17.1-1.2c9.4,0,17.1,0.5,17.1,1.2c0,0.6-7.7,1.2-17.1,1.2C13.7,45.6,6,45,6,44.4z"/>
		
			<radialGradient id="SVGID_100_" cx="-45.036" cy="132.2437" r="3.2636" gradientTransform="matrix(5.9072 0 0 0.3075 289.1731 3.7381)" gradientUnits="userSpaceOnUse">
			<stop  offset="0" style="stop-color:#010101"/>
			<stop  offset="1" style="stop-color:#010101"/>
		</radialGradient>
		<path class="st176" d="M6.5,44.4c0-0.6,7.5-1.1,16.6-1.1c9.2,0,16.6,0.5,16.6,1.1c0,0.6-7.5,1.1-16.6,1.1
			C13.9,45.5,6.5,45,6.5,44.4z"/>
		
			<radialGradient id="SVGID_101_" cx="-44.7359" cy="137.8953" r="3.2794" gradientTransform="matrix(5.7075 0 0 0.2978 278.467 3.3389)" gradientUnits="userSpaceOnUse">
			<stop  offset="0" style="stop-color:#010101"/>
			<stop  offset="1" style="stop-color:#010101"/>
		</radialGradient>
		<path class="st177" d="M6.9,44.4c0-0.6,7.2-1.1,16.2-1.1c8.9,0,16.2,0.5,16.2,1.1c0,0.6-7.2,1.1-16.2,1.1
			C14.2,45.5,6.9,45,6.9,44.4z"/>
		
			<radialGradient id="SVGID_102_" cx="-44.4142" cy="143.9278" r="3.2963" gradientTransform="matrix(5.5078 0 0 0.2881 267.7609 2.9397)" gradientUnits="userSpaceOnUse">
			<stop  offset="0" style="stop-color:#010101"/>
			<stop  offset="1" style="stop-color:#010101"/>
		</radialGradient>
		<path class="st178" d="M7.4,44.4c0-0.6,7-1.1,15.7-1.1c8.7,0,15.7,0.5,15.7,1.1c0,0.6-7,1.1-15.7,1.1C14.4,45.5,7.4,45,7.4,44.4z"
			/>
		
			<radialGradient id="SVGID_103_" cx="-44.0682" cy="150.3811" r="3.3145" gradientTransform="matrix(5.3081 0 0 0.2784 257.0548 2.5405)" gradientUnits="userSpaceOnUse">
			<stop  offset="0" style="stop-color:#010101"/>
			<stop  offset="1" style="stop-color:#010101"/>
		</radialGradient>
		<path class="st179" d="M7.9,44.4c0-0.6,6.8-1,15.3-1c8.4,0,15.3,0.5,15.3,1c0,0.6-6.8,1-15.3,1C14.7,45.4,7.9,45,7.9,44.4z"/>
		
			<radialGradient id="SVGID_104_" cx="-43.6951" cy="157.3008" r="3.334" gradientTransform="matrix(5.1084 0 0 0.2687 246.3488 2.1413)" gradientUnits="userSpaceOnUse">
			<stop  offset="0" style="stop-color:#010101"/>
			<stop  offset="1" style="stop-color:#010101"/>
		</radialGradient>
		<path class="st180" d="M8.3,44.4c0-0.6,6.6-1,14.8-1c8.2,0,14.8,0.4,14.8,1c0,0.6-6.6,1-14.8,1C15,45.4,8.3,45,8.3,44.4z"/>
		
			<radialGradient id="SVGID_105_" cx="-43.2917" cy="164.7394" r="3.355" gradientTransform="matrix(4.9087 0 0 0.259 235.6427 1.7421)" gradientUnits="userSpaceOnUse">
			<stop  offset="0" style="stop-color:#010101"/>
			<stop  offset="1" style="stop-color:#010101"/>
		</radialGradient>
		<path class="st181" d="M8.8,44.4c0-0.5,6.4-1,14.4-1c7.9,0,14.4,0.4,14.4,1c0,0.5-6.4,1-14.4,1C15.2,45.4,8.8,44.9,8.8,44.4z"/>
		
			<radialGradient id="SVGID_106_" cx="-42.8541" cy="172.7574" r="3.3778" gradientTransform="matrix(4.709 0 0 0.2493 224.9366 1.3429)" gradientUnits="userSpaceOnUse">
			<stop  offset="0" style="stop-color:#010101"/>
			<stop  offset="1" style="stop-color:#010101"/>
		</radialGradient>
		<path class="st182" d="M9.2,44.4c0-0.5,6.2-0.9,13.9-0.9c7.7,0,13.9,0.4,13.9,0.9c0,0.5-6.2,0.9-13.9,0.9
			C15.5,45.3,9.2,44.9,9.2,44.4z"/>
		
			<radialGradient id="SVGID_107_" cx="-42.3777" cy="181.4254" r="3.4025" gradientTransform="matrix(4.5093 0 0 0.2396 214.2305 0.9437)" gradientUnits="userSpaceOnUse">
			<stop  offset="0" style="stop-color:#010101"/>
			<stop  offset="1" style="stop-color:#010101"/>
		</radialGradient>
		<path class="st183" d="M9.7,44.4c0-0.5,6-0.9,13.4-0.9c7.4,0,13.4,0.4,13.4,0.9c0,0.5-6,0.9-13.4,0.9C15.7,45.3,9.7,44.9,9.7,44.4
			z"/>
		
			<radialGradient id="SVGID_108_" cx="-41.8572" cy="190.8256" r="3.4294" gradientTransform="matrix(4.3096 0 0 0.2299 203.5244 0.5445)" gradientUnits="userSpaceOnUse">
			<stop  offset="0" style="stop-color:#010101"/>
			<stop  offset="1" style="stop-color:#010101"/>
		</radialGradient>
		<path class="st184" d="M10.1,44.4c0-0.5,5.8-0.9,13-0.9c7.2,0,13,0.4,13,0.9c0,0.5-5.8,0.9-13,0.9C16,45.3,10.1,44.9,10.1,44.4z"
			/>
		
			<radialGradient id="SVGID_109_" cx="-41.2861" cy="201.055" r="3.4589" gradientTransform="matrix(4.1099 0 0 0.2202 192.8183 0.1453)" gradientUnits="userSpaceOnUse">
			<stop  offset="0" style="stop-color:#010101"/>
			<stop  offset="1" style="stop-color:#010101"/>
		</radialGradient>
		<path class="st185" d="M10.6,44.4c0-0.5,5.6-0.8,12.5-0.8c6.9,0,12.5,0.4,12.5,0.8c0,0.5-5.6,0.8-12.5,0.8
			C16.2,45.3,10.6,44.9,10.6,44.4z"/>
		
			<radialGradient id="SVGID_110_" cx="-40.6566" cy="212.2284" r="3.4913" gradientTransform="matrix(3.9102 0 0 0.2104 182.1123 -0.2539)" gradientUnits="userSpaceOnUse">
			<stop  offset="0" style="stop-color:#010101"/>
			<stop  offset="1" style="stop-color:#010101"/>
		</radialGradient>
		<path class="st186" d="M11.1,44.4c0-0.4,5.4-0.8,12.1-0.8c6.7,0,12.1,0.4,12.1,0.8c0,0.4-5.4,0.8-12.1,0.8
			C16.5,45.2,11.1,44.9,11.1,44.4z"/>
		
			<radialGradient id="SVGID_111_" cx="-39.9594" cy="224.4828" r="3.527" gradientTransform="matrix(3.7105 0 0 0.2007 171.4062 -0.6531)" gradientUnits="userSpaceOnUse">
			<stop  offset="0" style="stop-color:#010101"/>
			<stop  offset="1" style="stop-color:#010101"/>
		</radialGradient>
		<path class="st187" d="M11.5,44.4c0-0.4,5.2-0.8,11.6-0.8c6.4,0,11.6,0.3,11.6,0.8c0,0.4-5.2,0.8-11.6,0.8
			C16.7,45.2,11.5,44.8,11.5,44.4z"/>
		
			<radialGradient id="SVGID_112_" cx="-39.1829" cy="237.9829" r="3.5666" gradientTransform="matrix(3.5108 0 0 0.191 160.7001 -1.0523)" gradientUnits="userSpaceOnUse">
			<stop  offset="0" style="stop-color:#010101"/>
			<stop  offset="1" style="stop-color:#010101"/>
		</radialGradient>
		<path class="st188" d="M12,44.4c0-0.4,5-0.7,11.2-0.7c6.2,0,11.2,0.3,11.2,0.7c0,0.4-5,0.7-11.2,0.7C17,45.2,12,44.8,12,44.4z"/>
		
			<radialGradient id="SVGID_113_" cx="-38.3128" cy="252.9289" r="3.6107" gradientTransform="matrix(3.3111 0 0 0.1813 149.994 -1.4516)" gradientUnits="userSpaceOnUse">
			<stop  offset="0" style="stop-color:#010101"/>
			<stop  offset="1" style="stop-color:#010101"/>
		</radialGradient>
		<path class="st189" d="M12.4,44.4c0-0.4,4.8-0.7,10.7-0.7c5.9,0,10.7,0.3,10.7,0.7c0,0.4-4.8,0.7-10.7,0.7
			C17.2,45.1,12.4,44.8,12.4,44.4z"/>
		
			<radialGradient id="SVGID_114_" cx="-37.3309" cy="269.5663" r="3.6603" gradientTransform="matrix(3.1114 0 0 0.1716 139.2879 -1.8508)" gradientUnits="userSpaceOnUse">
			<stop  offset="0" style="stop-color:#010101"/>
			<stop  offset="1" style="stop-color:#010101"/>
		</radialGradient>
		<path class="st190" d="M12.9,44.4c0-0.4,4.6-0.7,10.3-0.7c5.7,0,10.3,0.3,10.3,0.7c0,0.4-4.6,0.7-10.3,0.7
			C17.5,45.1,12.9,44.8,12.9,44.4z"/>
		
			<radialGradient id="SVGID_115_" cx="-36.2143" cy="288.1993" r="3.7164" gradientTransform="matrix(2.9117 0 0 0.1619 128.5818 -2.25)" gradientUnits="userSpaceOnUse">
			<stop  offset="0" style="stop-color:#010101"/>
			<stop  offset="1" style="stop-color:#010101"/>
		</radialGradient>
		<path class="st191" d="M13.3,44.4c0-0.4,4.4-0.7,9.8-0.7c5.4,0,9.8,0.3,9.8,0.7c0,0.4-4.4,0.7-9.8,0.7
			C17.7,45.1,13.3,44.8,13.3,44.4z"/>
		
			<radialGradient id="SVGID_116_" cx="-34.9333" cy="309.21" r="3.7804" gradientTransform="matrix(2.712 0 0 0.1522 117.8758 -2.6492)" gradientUnits="userSpaceOnUse">
			<stop  offset="0" style="stop-color:#010101"/>
			<stop  offset="1" style="stop-color:#010101"/>
		</radialGradient>
		<path class="st192" d="M13.8,44.4c0-0.3,4.2-0.6,9.3-0.6c5.2,0,9.3,0.3,9.3,0.6c0,0.3-4.2,0.6-9.3,0.6C18,45,13.8,44.8,13.8,44.4z
			"/>
		
			<radialGradient id="SVGID_117_" cx="-33.4486" cy="333.0845" r="3.854" gradientTransform="matrix(2.5123 0 0 0.1425 107.1697 -3.0484)" gradientUnits="userSpaceOnUse">
			<stop  offset="0" style="stop-color:#010101"/>
			<stop  offset="1" style="stop-color:#010101"/>
		</radialGradient>
		<path class="st193" d="M14.3,44.4c0-0.3,4-0.6,8.9-0.6c4.9,0,8.9,0.3,8.9,0.6c0,0.3-4,0.6-8.9,0.6C18.2,45,14.3,44.7,14.3,44.4z"
			/>
		
			<radialGradient id="SVGID_118_" cx="-31.7076" cy="360.4511" r="3.9397" gradientTransform="matrix(2.3126 0 0 0.1328 96.4636 -3.4476)" gradientUnits="userSpaceOnUse">
			<stop  offset="0" style="stop-color:#010101"/>
			<stop  offset="1" style="stop-color:#010101"/>
		</radialGradient>
		<path class="st194" d="M14.7,44.4c0-0.3,3.8-0.6,8.4-0.6c4.7,0,8.4,0.3,8.4,0.6c0,0.3-3.8,0.6-8.4,0.6
			C18.5,45,14.7,44.7,14.7,44.4z"/>
		
			<radialGradient id="SVGID_119_" cx="-29.6374" cy="392.1364" r="4.0408" gradientTransform="matrix(2.1129 0 0 0.1231 85.7575 -3.8468)" gradientUnits="userSpaceOnUse">
			<stop  offset="0" style="stop-color:#010101"/>
			<stop  offset="1" style="stop-color:#010101"/>
		</radialGradient>
		<path class="st195" d="M15.2,44.4c0-0.3,3.6-0.5,8-0.5c4.4,0,8,0.2,8,0.5c0,0.3-3.6,0.5-8,0.5C18.7,44.9,15.2,44.7,15.2,44.4z"/>
		
			<radialGradient id="SVGID_120_" cx="-27.135" cy="429.2503" r="4.1617" gradientTransform="matrix(1.9132 0 0 0.1133 75.0514 -4.246)" gradientUnits="userSpaceOnUse">
			<stop  offset="0" style="stop-color:#010101"/>
			<stop  offset="1" style="stop-color:#010101"/>
		</radialGradient>
		<path class="st196" d="M15.6,44.4c0-0.3,3.4-0.5,7.5-0.5c4.1,0,7.5,0.2,7.5,0.5c0,0.3-3.4,0.5-7.5,0.5
			C19,44.9,15.6,44.7,15.6,44.4z"/>
		
			<radialGradient id="SVGID_121_" cx="-24.0494" cy="473.3186" r="4.3091" gradientTransform="matrix(1.7135 0 0 0.1036 64.3453 -4.6452)" gradientUnits="userSpaceOnUse">
			<stop  offset="0" style="stop-color:#010101"/>
			<stop  offset="1" style="stop-color:#010101"/>
		</radialGradient>
		<path class="st197" d="M16.1,44.4c0-0.3,3.2-0.5,7.1-0.5c3.9,0,7.1,0.2,7.1,0.5c0,0.3-3.2,0.5-7.1,0.5
			C19.2,44.9,16.1,44.7,16.1,44.4z"/>
		
			<radialGradient id="SVGID_122_" cx="-20.1497" cy="526.4982" r="4.493" gradientTransform="matrix(1.5138 0 0 9.392683e-02 53.6392 -5.0444)" gradientUnits="userSpaceOnUse">
			<stop  offset="0" style="stop-color:#010101"/>
			<stop  offset="1" style="stop-color:#010101"/>
		</radialGradient>
		<path class="st198" d="M16.5,44.4c0-0.2,3-0.4,6.6-0.4c3.6,0,6.6,0.2,6.6,0.4c0,0.2-3,0.4-6.6,0.4C19.5,44.8,16.5,44.6,16.5,44.4z
			"/>
		
			<radialGradient id="SVGID_123_" cx="-15.0647" cy="591.9403" r="4.7291" gradientTransform="matrix(1.3141 0 0 8.421707e-02 42.9332 -5.4436)" gradientUnits="userSpaceOnUse">
			<stop  offset="0" style="stop-color:#010101"/>
			<stop  offset="1" style="stop-color:#010101"/>
		</radialGradient>
		<path class="st199" d="M17,44.4c0-0.2,2.7-0.4,6.1-0.4c3.4,0,6.1,0.2,6.1,0.4c0,0.2-2.8,0.4-6.1,0.4C19.7,44.8,17,44.6,17,44.4z"
			/>
		
			<radialGradient id="SVGID_124_" cx="-8.1572" cy="674.4393" r="5.0443" gradientTransform="matrix(1.1144 0 0 7.450732e-02 32.2271 -5.8428)" gradientUnits="userSpaceOnUse">
			<stop  offset="0" style="stop-color:#010101"/>
			<stop  offset="1" style="stop-color:#010101"/>
		</radialGradient>
		<path class="st200" d="M17.4,44.4c0-0.2,2.5-0.4,5.7-0.4c3.1,0,5.7,0.2,5.7,0.4c0,0.2-2.5,0.4-5.7,0.4
			C20,44.8,17.4,44.6,17.4,44.4z"/>
		
			<radialGradient id="SVGID_125_" cx="1.7663" cy="781.6627" r="5.488" gradientTransform="matrix(0.9147 0 0 6.479756e-02 21.521 -6.242)" gradientUnits="userSpaceOnUse">
			<stop  offset="0" style="stop-color:#010101"/>
			<stop  offset="1" style="stop-color:#010101"/>
		</radialGradient>
		<path class="st201" d="M17.9,44.4c0-0.2,2.3-0.3,5.2-0.3c2.9,0,5.2,0.2,5.2,0.3c0,0.2-2.3,0.3-5.2,0.3
			C20.2,44.7,17.9,44.6,17.9,44.4z"/>
		
			<radialGradient id="SVGID_126_" cx="17.2332" cy="926.6845" r="6.1634" gradientTransform="matrix(0.715 0 0 5.508780e-02 10.8149 -6.6412)" gradientUnits="userSpaceOnUse">
			<stop  offset="0" style="stop-color:#010101"/>
			<stop  offset="1" style="stop-color:#010101"/>
		</radialGradient>
		<path class="st202" d="M18.4,44.4c0-0.2,2.1-0.3,4.8-0.3c2.6,0,4.8,0.1,4.8,0.3c0,0.2-2.1,0.3-4.8,0.3
			C20.5,44.7,18.4,44.6,18.4,44.4z"/>
		
			<radialGradient id="SVGID_127_" cx="44.6882" cy="1133.7683" r="7.3327" gradientTransform="matrix(0.5153 0 0 4.537805e-02 0.1088 -7.0404)" gradientUnits="userSpaceOnUse">
			<stop  offset="0" style="stop-color:#010101"/>
			<stop  offset="1" style="stop-color:#010101"/>
		</radialGradient>
		<path class="st203" d="M18.8,44.4c0-0.2,1.9-0.3,4.3-0.3c2.4,0,4.3,0.1,4.3,0.3c0,0.2-1.9,0.3-4.3,0.3
			C20.8,44.7,18.8,44.6,18.8,44.4z"/>
		
			<radialGradient id="SVGID_128_" cx="106.8882" cy="1453.5983" r="9.9294" gradientTransform="matrix(0.3156 0 0 3.566829e-02 -10.5973 -7.4396)" gradientUnits="userSpaceOnUse">
			<stop  offset="0" style="stop-color:#010101"/>
			<stop  offset="1" style="stop-color:#010101"/>
		</radialGradient>
		<path class="st204" d="M19.3,44.4c0-0.1,1.7-0.2,3.9-0.2c2.1,0,3.9,0.1,3.9,0.2c0,0.1-1.7,0.2-3.9,0.2
			C21,44.7,19.3,44.5,19.3,44.4z"/>
		
			<radialGradient id="SVGID_129_" cx="383.4339" cy="2012.6923" r="21.5757" gradientTransform="matrix(0.1159 0 0 2.595854e-02 -21.3033 -7.8388)" gradientUnits="userSpaceOnUse">
			<stop  offset="0" style="stop-color:#010101"/>
			<stop  offset="1" style="stop-color:#010101"/>
		</radialGradient>
		<path class="st205" d="M19.7,44.4c0-0.1,1.5-0.2,3.4-0.2c1.9,0,3.4,0.1,3.4,0.2c0,0.1-1.5,0.2-3.4,0.2
			C21.3,44.6,19.7,44.5,19.7,44.4z"/>
		
			<radialGradient id="SVGID_130_" cx="-658.0676" cy="3239.98" r="26.1189" gradientTransform="matrix(-8.380000e-02 0 0 1.624878e-02 -32.0094 -8.238)" gradientUnits="userSpaceOnUse">
			<stop  offset="0" style="stop-color:#010101"/>
			<stop  offset="1" style="stop-color:#010101"/>
		</radialGradient>
		<path class="st206" d="M20.2,44.4c0-0.1,1.3-0.2,2.9-0.2c1.6,0,2.9,0.1,2.9,0.2c0,0.1-1.3,0.2-2.9,0.2
			C21.5,44.6,20.2,44.5,20.2,44.4z"/>
		
			<radialGradient id="SVGID_131_" cx="-232.2827" cy="8112.0513" r="17.5545" gradientTransform="matrix(-0.2835 0 0 6.539024e-03 -42.7155 -8.6372)" gradientUnits="userSpaceOnUse">
			<stop  offset="0" style="stop-color:#010101"/>
			<stop  offset="1" style="stop-color:#010101"/>
		</radialGradient>
		<path class="st207" d="M20.6,44.4c0-0.1,1.1-0.2,2.5-0.2c1.4,0,2.5,0.1,2.5,0.2c0,0.1-1.1,0.2-2.5,0.2
			C21.8,44.6,20.6,44.5,20.6,44.4z"/>
		
			<radialGradient id="SVGID_132_" cx="-158.4401" cy="-16855.4375" r="27.028" gradientTransform="matrix(-0.4832 0 0 -3.170732e-03 -53.4216 -9.0364)" gradientUnits="userSpaceOnUse">
			<stop  offset="0" style="stop-color:#010101"/>
			<stop  offset="1" style="stop-color:#010101"/>
		</radialGradient>
		<path class="st208" d="M21.1,44.4c0-0.1,0.9-0.1,2-0.1c1.1,0,2,0.1,2,0.1c0,0.1-0.9,0.1-2,0.1C22,44.5,21.1,44.5,21.1,44.4z"/>
		
			<radialGradient id="SVGID_133_" cx="-127.7849" cy="-4180.2183" r="5.1565" gradientTransform="matrix(-0.6829 0 0 -1.288049e-02 -64.1277 -9.4356)" gradientUnits="userSpaceOnUse">
			<stop  offset="0" style="stop-color:#010101"/>
			<stop  offset="1" style="stop-color:#010101"/>
		</radialGradient>
		<path class="st209" d="M21.6,44.4c0,0,0.7-0.1,1.6-0.1c0.9,0,1.6,0,1.6,0.1c0,0-0.7,0.1-1.6,0.1C22.3,44.5,21.6,44.5,21.6,44.4z"
			/>
		
			<radialGradient id="SVGID_134_" cx="-111.002" cy="-2401.144" r="2.0178" gradientTransform="matrix(-0.8826 0 0 -2.259024e-02 -74.8338 -9.8348)" gradientUnits="userSpaceOnUse">
			<stop  offset="0" style="stop-color:#010101"/>
			<stop  offset="1" style="stop-color:#010101"/>
		</radialGradient>
		<path class="st210" d="M22,44.4c0,0,0.5-0.1,1.1-0.1c0.6,0,1.1,0,1.1,0.1c0,0-0.5,0.1-1.1,0.1C22.5,44.5,22,44.4,22,44.4z"/>
		
			<radialGradient id="SVGID_135_" cx="-100.4125" cy="-1691.6907" r="0.7222" gradientTransform="matrix(-1.0823 0 0 -3.230000e-02 -85.5398 -10.234)" gradientUnits="userSpaceOnUse">
			<stop  offset="0" style="stop-color:#010101"/>
			<stop  offset="1" style="stop-color:#010101"/>
		</radialGradient>
		<path class="st211" d="M22.5,44.4c0,0,0.3,0,0.7,0c0.4,0,0.7,0,0.7,0c0,0-0.3,0-0.7,0C22.8,44.4,22.5,44.4,22.5,44.4z"/>
	</g>
	<linearGradient id="SVGID_136_" gradientUnits="userSpaceOnUse" x1="0.3212" y1="21.6602" x2="43.5136" y2="21.6602">
		<stop  offset="0" style="stop-color:#F89521"/>
		<stop  offset="0.8856" style="stop-color:#5D3269"/>
		<stop  offset="1" style="stop-color:#4C276C"/>
	</linearGradient>
	<path class="st212" d="M21.9,0.2c11.9,0,21.6,9.7,21.6,21.6V43c-6.7-4.4-14.2-1.9-19.4-0.5c-3,0.8-6.1,0.8-9-0.2
		C6.5,39.5,0.3,31.4,0.3,21.8C0.3,9.9,10,0.2,21.9,0.2z"/>
	<g class="st167">
		
			<ellipse transform="matrix(0.9999 -1.556243e-02 1.556243e-02 0.9999 -0.3535 0.3704)" class="st45" cx="23.6" cy="22.9" rx="18.5" ry="18.5"/>
		
			<ellipse transform="matrix(0.9999 -1.596334e-02 1.596334e-02 0.9999 -0.3624 0.3796)" class="st46" cx="23.6" cy="22.9" rx="18.5" ry="18.5"/>
		
			<ellipse transform="matrix(0.9999 -1.638693e-02 1.638693e-02 0.9999 -0.3717 0.3894)" class="st47" cx="23.6" cy="22.9" rx="18.5" ry="18.5"/>
		
			<ellipse transform="matrix(0.9999 -1.683518e-02 1.683518e-02 0.9999 -0.3816 0.3997)" class="st48" cx="23.5" cy="22.9" rx="18.5" ry="18.5"/>
		
			<ellipse transform="matrix(0.9999 -1.731032e-02 1.731032e-02 0.9999 -0.3921 0.4106)" class="st49" cx="23.5" cy="22.9" rx="18.5" ry="18.5"/>
		
			<ellipse transform="matrix(0.9998 -1.781482e-02 1.781482e-02 0.9998 -0.4032 0.4222)" class="st50" cx="23.5" cy="22.8" rx="18.5" ry="18.5"/>
		
			<ellipse transform="matrix(0.9998 -1.835151e-02 1.835151e-02 0.9998 -0.415 0.4346)" class="st51" cx="23.5" cy="22.8" rx="18.5" ry="18.5"/>
		
			<ellipse transform="matrix(0.9998 -1.892356e-02 1.892356e-02 0.9998 -0.4276 0.4478)" class="st52" cx="23.4" cy="22.8" rx="18.5" ry="18.5"/>
		
			<ellipse transform="matrix(0.9998 -1.953458e-02 1.953458e-02 0.9998 -0.4411 0.4619)" class="st53" cx="23.4" cy="22.8" rx="18.5" ry="18.5"/>
		
			<ellipse transform="matrix(0.9998 -2.018869e-02 2.018869e-02 0.9998 -0.4555 0.477)" class="st54" cx="23.4" cy="22.8" rx="18.4" ry="18.4"/>
		
			<ellipse transform="matrix(0.9998 -2.089063e-02 2.089063e-02 0.9998 -0.4709 0.4932)" class="st55" cx="23.4" cy="22.8" rx="18.4" ry="18.4"/>
		
			<ellipse transform="matrix(0.9998 -2.164581e-02 2.164581e-02 0.9998 -0.4875 0.5107)" class="st56" cx="23.3" cy="22.8" rx="18.4" ry="18.4"/>
		
			<ellipse transform="matrix(0.9997 -2.246055e-02 2.246055e-02 0.9997 -0.5054 0.5296)" class="st57" cx="23.3" cy="22.8" rx="18.4" ry="18.4"/>
		
			<ellipse transform="matrix(0.9997 -2.334216e-02 2.334216e-02 0.9997 -0.5247 0.55)" class="st58" cx="23.3" cy="22.7" rx="18.4" ry="18.4"/>
		
			<ellipse transform="matrix(0.9997 -2.429923e-02 2.429923e-02 0.9997 -0.5457 0.5722)" class="st59" cx="23.3" cy="22.7" rx="18.4" ry="18.4"/>
		
			<ellipse transform="matrix(0.9997 -2.534188e-02 2.534188e-02 0.9997 -0.5685 0.5964)" class="st60" cx="23.2" cy="22.7" rx="18.4" ry="18.4"/>
		
			<ellipse transform="matrix(0.9996 -2.648209e-02 2.648209e-02 0.9996 -0.5934 0.6229)" class="st61" cx="23.2" cy="22.7" rx="18.4" ry="18.4"/>
		
			<ellipse transform="matrix(0.9996 -2.773422e-02 2.773422e-02 0.9996 -0.6207 0.6521)" class="st62" cx="23.2" cy="22.7" rx="18.4" ry="18.4"/>
		
			<ellipse transform="matrix(0.9996 -2.911559e-02 2.911559e-02 0.9996 -0.6509 0.6842)" class="st63" cx="23.2" cy="22.7" rx="18.4" ry="18.4"/>
		
			<ellipse transform="matrix(0.9995 -3.064725e-02 3.064725e-02 0.9995 -0.6842 0.72)" class="st64" cx="23.1" cy="22.7" rx="18.3" ry="18.3"/>
		<path class="st65" d="M23.1,41C13,41,4.8,32.8,4.8,22.7S13,4.3,23.1,4.3c10.1,0,18.3,8.2,18.3,18.3S33.2,41,23.1,41z"/>
		<path class="st66" d="M23.1,41C13,41,4.8,32.8,4.8,22.7S13,4.3,23.1,4.3c10.1,0,18.3,8.2,18.3,18.3S33.2,41,23.1,41z"/>
		<path class="st67" d="M23.1,41C13,41,4.8,32.7,4.8,22.6S13,4.3,23.1,4.3c10.1,0,18.3,8.2,18.3,18.3S33.2,41,23.1,41z"/>
		<path class="st68" d="M23,40.9C13,40.9,4.7,32.7,4.7,22.6S13,4.3,23,4.3c10.1,0,18.3,8.2,18.3,18.3S33.1,40.9,23,40.9z"/>
		<path class="st69" d="M23,40.9c-10.1,0-18.3-8.2-18.3-18.3S12.9,4.3,23,4.3c10.1,0,18.3,8.2,18.3,18.3S33.1,40.9,23,40.9z"/>
		<path class="st70" d="M23,40.9c-10.1,0-18.3-8.2-18.3-18.3S12.9,4.3,23,4.3c10.1,0,18.3,8.2,18.3,18.3S33.1,40.9,23,40.9z"/>
		<path class="st71" d="M23,40.9c-10.1,0-18.3-8.2-18.3-18.3S12.9,4.3,23,4.3c10.1,0,18.3,8.2,18.3,18.3S33,40.9,23,40.9z"/>
		<path class="st72" d="M22.9,40.8c-10.1,0-18.3-8.2-18.3-18.3S12.9,4.3,22.9,4.3c10.1,0,18.3,8.2,18.3,18.3S33,40.8,22.9,40.8z"/>
		<path class="st73" d="M22.9,40.8c-10.1,0-18.2-8.2-18.2-18.2S12.9,4.3,22.9,4.3c10.1,0,18.2,8.2,18.2,18.2S33,40.8,22.9,40.8z"/>
		<path class="st74" d="M22.9,40.8c-10.1,0-18.2-8.2-18.2-18.2S12.8,4.3,22.9,4.3c10.1,0,18.2,8.2,18.2,18.2S32.9,40.8,22.9,40.8z"
			/>
		<path class="st75" d="M22.9,40.8c-10.1,0-18.2-8.2-18.2-18.2S12.8,4.3,22.9,4.3c10.1,0,18.2,8.2,18.2,18.2S32.9,40.8,22.9,40.8z"
			/>
		<path class="st76" d="M22.8,40.8c-10,0-18.2-8.2-18.2-18.2S12.8,4.3,22.8,4.3c10,0,18.2,8.2,18.2,18.2S32.9,40.8,22.8,40.8z"/>
		<path class="st77" d="M22.8,40.7c-10,0-18.2-8.2-18.2-18.2S12.8,4.3,22.8,4.3c10,0,18.2,8.2,18.2,18.2S32.9,40.7,22.8,40.7z"/>
		<path class="st78" d="M22.8,40.7c-10,0-18.2-8.2-18.2-18.2S12.8,4.3,22.8,4.3c10,0,18.2,8.2,18.2,18.2S32.8,40.7,22.8,40.7z"/>
		<path class="st79" d="M22.8,40.7c-10,0-18.2-8.2-18.2-18.2S12.7,4.3,22.8,4.3S41,12.5,41,22.5S32.8,40.7,22.8,40.7z"/>
		<path class="st80" d="M22.7,40.7c-10,0-18.2-8.2-18.2-18.2S12.7,4.3,22.7,4.3c10,0,18.2,8.2,18.2,18.2S32.8,40.7,22.7,40.7z"/>
		<path class="st81" d="M22.7,40.6c-10,0-18.2-8.1-18.2-18.2S12.7,4.3,22.7,4.3c10,0,18.2,8.1,18.2,18.2S32.7,40.6,22.7,40.6z"/>
		<path class="st82" d="M22.7,40.6c-10,0-18.2-8.1-18.2-18.2S12.7,4.3,22.7,4.3c10,0,18.2,8.1,18.2,18.2S32.7,40.6,22.7,40.6z"/>
		<path class="st83" d="M22.7,40.6c-10,0-18.1-8.1-18.1-18.1S12.7,4.3,22.7,4.3c10,0,18.1,8.1,18.1,18.1S32.7,40.6,22.7,40.6z"/>
		<path class="st84" d="M22.6,40.6c-10,0-18.1-8.1-18.1-18.1S12.6,4.3,22.6,4.3c10,0,18.1,8.1,18.1,18.1S32.6,40.6,22.6,40.6z"/>
		<path class="st85" d="M22.6,40.6c-10,0-18.1-8.1-18.1-18.1S12.6,4.3,22.6,4.3c10,0,18.1,8.1,18.1,18.1S32.6,40.6,22.6,40.6z"/>
		<path class="st86" d="M22.6,40.5c-10,0-18.1-8.1-18.1-18.1S12.6,4.3,22.6,4.3c10,0,18.1,8.1,18.1,18.1S32.6,40.5,22.6,40.5z"/>
		<path class="st87" d="M22.6,40.5c-10,0-18.1-8.1-18.1-18.1S12.6,4.3,22.6,4.3c10,0,18.1,8.1,18.1,18.1S32.5,40.5,22.6,40.5z"/>
		<path class="st88" d="M22.5,40.5c-10,0-18.1-8.1-18.1-18.1S12.6,4.3,22.5,4.3c10,0,18.1,8.1,18.1,18.1S32.5,40.5,22.5,40.5z"/>
		<path class="st89" d="M22.5,40.5c-10,0-18.1-8.1-18.1-18.1S12.5,4.3,22.5,4.3c10,0,18.1,8.1,18.1,18.1S32.5,40.5,22.5,40.5z"/>
		<path class="st90" d="M22.5,40.4c-10,0-18.1-8.1-18.1-18.1S12.5,4.3,22.5,4.3c10,0,18.1,8.1,18.1,18.1S32.5,40.4,22.5,40.4z"/>
		<path class="st91" d="M22.5,40.4c-10,0-18.1-8.1-18.1-18.1S12.5,4.3,22.5,4.3c10,0,18.1,8.1,18.1,18.1S32.4,40.4,22.5,40.4z"/>
		<path class="st92" d="M22.4,40.4c-10,0-18-8.1-18-18s8.1-18,18-18c10,0,18,8.1,18,18S32.4,40.4,22.4,40.4z"/>
		<path class="st93" d="M22.4,40.4c-9.9,0-18-8.1-18-18s8.1-18,18-18c9.9,0,18,8.1,18,18S32.4,40.4,22.4,40.4z"/>
		<path class="st94" d="M22.4,40.4c-9.9,0-18-8.1-18-18s8.1-18,18-18c9.9,0,18,8.1,18,18S32.3,40.4,22.4,40.4z"/>
		<path class="st95" d="M22.4,40.3c-9.9,0-18-8.1-18-18s8.1-18,18-18c9.9,0,18,8.1,18,18S32.3,40.3,22.4,40.3z"/>
		<path class="st96" d="M22.3,40.3c-9.9,0-18-8.1-18-18s8.1-18,18-18c9.9,0,18,8.1,18,18S32.3,40.3,22.3,40.3z"/>
		<path class="st97" d="M22.3,40.3c-9.9,0-18-8.1-18-18s8.1-18,18-18c9.9,0,18,8.1,18,18S32.2,40.3,22.3,40.3z"/>
		<path class="st98" d="M22.3,40.3c-9.9,0-18-8.1-18-18s8.1-18,18-18c9.9,0,18,8.1,18,18S32.2,40.3,22.3,40.3z"/>
		<path class="st99" d="M22.3,40.2c-9.9,0-18-8.1-18-18s8.1-18,18-18c9.9,0,18,8.1,18,18S32.2,40.2,22.3,40.2z"/>
		<path class="st100" d="M22.2,40.2c-9.9,0-18-8.1-18-18s8.1-18,18-18c9.9,0,18,8.1,18,18S32.1,40.2,22.2,40.2z"/>
		<path class="st101" d="M22.2,40.2c-9.9,0-18-8.1-18-18s8.1-18,18-18c9.9,0,18,8.1,18,18S32.1,40.2,22.2,40.2z"/>
		<path class="st102" d="M22.2,40.2c-9.9,0-17.9-8-17.9-17.9s8-17.9,17.9-17.9c9.9,0,17.9,8,17.9,17.9S32.1,40.2,22.2,40.2z"/>
		<path class="st103" d="M22.2,40.2c-9.9,0-17.9-8-17.9-17.9s8-17.9,17.9-17.9c9.9,0,17.9,8,17.9,17.9S32.1,40.2,22.2,40.2z"/>
		<path class="st104" d="M22.1,40.1c-9.9,0-17.9-8-17.9-17.9s8-17.9,17.9-17.9c9.9,0,17.9,8,17.9,17.9S32,40.1,22.1,40.1z"/>
		<path class="st105" d="M22.1,40.1c-9.9,0-17.9-8-17.9-17.9s8-17.9,17.9-17.9c9.9,0,17.9,8,17.9,17.9S32,40.1,22.1,40.1z"/>
		<path class="st106" d="M22.1,40.1c-9.9,0-17.9-8-17.9-17.9s8-17.9,17.9-17.9c9.9,0,17.9,8,17.9,17.9S32,40.1,22.1,40.1z"/>
		<path class="st107" d="M22.1,40.1c-9.9,0-17.9-8-17.9-17.9s8-17.9,17.9-17.9c9.9,0,17.9,8,17.9,17.9S31.9,40.1,22.1,40.1z"/>
		<path class="st108" d="M22,40c-9.9,0-17.9-8-17.9-17.9S12.2,4.3,22,4.3c9.9,0,17.9,8,17.9,17.9S31.9,40,22,40z"/>
		<path class="st109" d="M22,40c-9.9,0-17.9-8-17.9-17.9S12.2,4.3,22,4.3c9.9,0,17.9,8,17.9,17.9S31.9,40,22,40z"/>
		<path class="st110" d="M22,40c-9.8,0-17.9-8-17.9-17.9S12.1,4.3,22,4.3c9.8,0,17.9,8,17.9,17.9S31.8,40,22,40z"/>
		<path class="st111" d="M22,40c-9.8,0-17.8-8-17.8-17.8S12.1,4.3,22,4.3c9.8,0,17.8,8,17.8,17.8S31.8,40,22,40z"/>
		<path class="st112" d="M21.9,40c-9.8,0-17.8-8-17.8-17.8s8-17.8,17.8-17.8c9.8,0,17.8,8,17.8,17.8S31.8,40,21.9,40z"/>
		<path class="st113" d="M21.9,39.9c-9.8,0-17.8-8-17.8-17.8s8-17.8,17.8-17.8c9.8,0,17.8,8,17.8,17.8S31.7,39.9,21.9,39.9z"/>
		<path class="st114" d="M21.9,39.9c-9.8,0-17.8-8-17.8-17.8s8-17.8,17.8-17.8c9.8,0,17.8,8,17.8,17.8S31.7,39.9,21.9,39.9z"/>
		<path class="st115" d="M21.9,39.9c-9.8,0-17.8-8-17.8-17.8S12,4.3,21.9,4.3c9.8,0,17.8,8,17.8,17.8S31.7,39.9,21.9,39.9z"/>
		<path class="st116" d="M21.8,39.9C12,39.9,4,31.9,4,22.1S12,4.3,21.8,4.3c9.8,0,17.8,8,17.8,17.8S31.6,39.9,21.8,39.9z"/>
	</g>
	<linearGradient id="SVGID_137_" gradientUnits="userSpaceOnUse" x1="9.3631" y1="9.5995" x2="34.5148" y2="34.7511">
		<stop  offset="0" style="stop-color:#C3C4C3"/>
		<stop  offset="0.215" style="stop-color:#D7D7D6"/>
		<stop  offset="0.4828" style="stop-color:#EBEAE9"/>
		<stop  offset="0.7466" style="stop-color:#F8F8F7"/>
		<stop  offset="1" style="stop-color:#FFFFFF"/>
	</linearGradient>
	<path class="st213" d="M21.8,39.9C12,39.9,4,31.9,4,22.1S12,4.3,21.8,4.3c9.8,0,17.8,8,17.8,17.8S31.6,39.9,21.8,39.9z"/>
	<linearGradient id="SVGID_138_" gradientUnits="userSpaceOnUse" x1="12.3505" y1="22.0727" x2="28.7441" y2="22.0727">
		<stop  offset="0" style="stop-color:#4C276C"/>
		<stop  offset="0.1144" style="stop-color:#5D3269"/>
		<stop  offset="1" style="stop-color:#F89521"/>
	</linearGradient>
	<path class="st214" d="M25,30.3h-9c-2,0-3.7-1.7-3.7-3.7v-9c0-2,1.7-3.7,3.7-3.7h9c2,0,3.7,1.7,3.7,3.7v9
		C28.7,28.6,27.1,30.3,25,30.3z M16.1,15.5c-1.1,0-2.1,0.9-2.1,2.1v9c0,1.1,0.9,2.1,2.1,2.1h9c1.1,0,2.1-0.9,2.1-2.1v-9
		c0-1.1-0.9-2.1-2.1-2.1H16.1z M20.5,26.4c-2.3,0-4.2-1.9-4.2-4.2c0-2.3,1.9-4.2,4.2-4.2c2.3,0,4.2,1.9,4.2,4.2
		C24.8,24.5,22.9,26.4,20.5,26.4z M20.5,19.5c-1.4,0-2.6,1.2-2.6,2.6c0,1.4,1.2,2.6,2.6,2.6c1.4,0,2.6-1.2,2.6-2.6
		C23.2,20.7,22,19.5,20.5,19.5z M24.9,16.8c-0.6,0-1.1,0.5-1.1,1.1c0,0.6,0.5,1.1,1.1,1.1c0.6,0,1.1-0.5,1.1-1.1
		C26,17.3,25.5,16.8,24.9,16.8z"/>
</g>
</svg>
